M48
; DRILL file {KiCad (6.0.2)} date Mon Apr 25 16:55:12 2022
; FORMAT={-:-/ absolute / inch / decimal}
; #@! TF.CreationDate,2022-04-25T16:55:12-06:00
; #@! TF.GenerationSoftware,Kicad,Pcbnew,(6.0.2)
; #@! TF.FileFunction,Plated,1,2,PTH
FMAT,2
INCH
; #@! TA.AperFunction,Plated,PTH,ViaDrill
T1C0.0150
; #@! TA.AperFunction,Plated,PTH,ComponentDrill
T2C0.0315
; #@! TA.AperFunction,Plated,PTH,ComponentDrill
T3C0.0320
; #@! TA.AperFunction,Plated,PTH,ComponentDrill
T4C0.0394
%
G90
G05
T1
X4.42Y-4.575
X4.555Y-4.575
X4.6Y-2.6
X4.65Y-2.5
X4.75Y-2.45
X4.76Y-4.655
X4.8Y-2.7
X4.87Y-4.065
X4.93Y-3.9
X4.95Y-2.45
X4.95Y-2.55
X5.02Y-3.695
X5.05Y-3.05
X5.05Y-4.36
X5.1Y-2.8
X5.1Y-3.1
X5.15Y-2.3
X5.255Y-3.4
X5.3Y-2.65
X5.3Y-3.1
X5.35Y-2.65
X5.35Y-4.25
X5.36Y-4.025
X5.365Y-3.93
X5.4Y-2.85
X5.4Y-3.275
X5.42Y-4.33
X5.435Y-4.18
X5.53Y-4.515
X5.55Y-2.85
X5.55Y-2.9
X5.585Y-3.975
X5.59Y-4.065
X5.6Y-2.35
X5.6Y-3.55
X5.63Y-4.545
X5.7Y-2.85
X5.715Y-4.675
X5.715Y-4.8
X5.75Y-2.25
X5.75Y-4.235
X5.755Y-4.035
X5.8Y-3.32
X5.8Y-3.4
X5.81Y-4.0
X5.85Y-3.19
X5.9Y-4.33
X6.05Y-2.85
X6.065Y-3.735
X6.08Y-4.435
X6.11Y-3.015
X6.15Y-3.65
X6.2Y-2.35
X6.2Y-2.6
X6.3Y-2.35
X6.35Y-2.2
X6.4Y-1.8
X6.44Y-4.645
X6.455Y-3.1
X6.48Y-4.445
X6.49Y-3.01
X6.55Y-2.2
X6.55Y-2.9
X6.56Y-4.065
X6.605Y-2.855
X6.65Y-2.6
X6.65Y-2.75
X6.655Y-4.445
X6.7Y-2.35
X6.7Y-2.9
X6.8Y-2.6
X7.1Y-3.0
X7.105Y-3.285
X7.205Y-3.295
X7.215Y-2.955
X7.285Y-3.29
X7.325Y-3.535
X7.41Y-2.685
X7.41Y-2.905
X7.42Y-3.64
X7.45Y-2.25
X7.465Y-3.165
X7.59Y-2.91
X7.62Y-2.68
T2
X4.495Y-4.8
X4.5208Y-4.36
X4.595Y-4.8
X4.6208Y-4.36
X4.8992Y-4.18
X4.9992Y-4.18
X5.065Y-3.315
X5.165Y-3.315
X7.2Y-2.1
X7.235Y-4.36
X7.235Y-4.55
X7.255Y-3.42
X7.3Y-2.1
X7.335Y-4.36
X7.335Y-4.55
X7.355Y-3.42
X7.575Y-2.035
X7.675Y-2.035
T3
X5.1Y-2.415
X5.1Y-2.715
X5.2Y-2.415
X5.2Y-2.715
X5.3Y-2.415
X5.3Y-2.715
X5.4Y-2.415
X5.4Y-2.715
X5.5Y-2.415
X5.5Y-2.715
X5.6Y-2.415
X5.6Y-2.715
X5.7Y-2.415
X5.7Y-2.715
X5.8Y-2.415
X5.8Y-2.715
X5.9Y-2.415
X5.9Y-2.715
X6.0Y-2.415
X6.0Y-2.715
X6.1Y-2.415
X6.1Y-2.715
X6.2Y-2.415
X6.2Y-2.715
X6.3Y-2.415
X6.3Y-2.715
X6.4Y-2.415
X6.4Y-2.715
T4
X4.39Y-3.725
X4.39Y-3.825
X4.395Y-4.02
X4.395Y-4.12
X4.5122Y-2.15
X4.5122Y-2.25
X4.5122Y-2.35
X4.5122Y-2.45
X4.5122Y-2.55
X4.5122Y-2.65
X5.675Y-3.1
X5.675Y-3.2
X5.675Y-3.3
X5.675Y-3.4
X5.675Y-3.5
X5.675Y-3.6
X6.275Y-3.2
X6.275Y-3.3
X6.275Y-3.4
X6.275Y-3.5
X6.645Y-3.1152
X6.645Y-3.2152
X7.69Y-2.46
X7.69Y-2.56
X7.69Y-2.66
X7.69Y-2.76
X7.69Y-2.86
X7.69Y-2.96
X7.69Y-3.06
X7.69Y-3.16
X7.69Y-3.26
X7.69Y-3.36
X7.69Y-3.46
X7.69Y-3.56
X7.69Y-3.66
X7.69Y-3.76
X7.69Y-3.86
X7.69Y-3.96
X7.69Y-4.06
X7.69Y-4.16
X7.69Y-4.26
X7.69Y-4.36
X7.79Y-2.46
X7.79Y-2.56
X7.79Y-2.66
X7.79Y-2.76
X7.79Y-2.86
X7.79Y-2.96
X7.79Y-3.06
X7.79Y-3.16
X7.79Y-3.26
X7.79Y-3.36
X7.79Y-3.46
X7.79Y-3.56
X7.79Y-3.66
X7.79Y-3.76
X7.79Y-3.86
X7.79Y-3.96
X7.79Y-4.06
X7.79Y-4.16
X7.79Y-4.26
X7.79Y-4.36
T0
M30
