%TF.GenerationSoftware,KiCad,Pcbnew,(6.0.1)*%
%TF.CreationDate,2022-03-21T02:34:04-06:00*%
%TF.ProjectId,ColoradoCUBE_Payload,436f6c6f-7261-4646-9f43-5542455f5061,rev?*%
%TF.SameCoordinates,Original*%
%TF.FileFunction,Soldermask,Bot*%
%TF.FilePolarity,Negative*%
%FSLAX46Y46*%
G04 Gerber Fmt 4.6, Leading zero omitted, Abs format (unit mm)*
G04 Created by KiCad (PCBNEW (6.0.1)) date 2022-03-21 02:34:04*
%MOMM*%
%LPD*%
G01*
G04 APERTURE LIST*
G04 Aperture macros list*
%AMRoundRect*
0 Rectangle with rounded corners*
0 $1 Rounding radius*
0 $2 $3 $4 $5 $6 $7 $8 $9 X,Y pos of 4 corners*
0 Add a 4 corners polygon primitive as box body*
4,1,4,$2,$3,$4,$5,$6,$7,$8,$9,$2,$3,0*
0 Add four circle primitives for the rounded corners*
1,1,$1+$1,$2,$3*
1,1,$1+$1,$4,$5*
1,1,$1+$1,$6,$7*
1,1,$1+$1,$8,$9*
0 Add four rect primitives between the rounded corners*
20,1,$1+$1,$2,$3,$4,$5,0*
20,1,$1+$1,$4,$5,$6,$7,0*
20,1,$1+$1,$6,$7,$8,$9,0*
20,1,$1+$1,$8,$9,$2,$3,0*%
G04 Aperture macros list end*
%ADD10C,1.501600*%
%ADD11RoundRect,0.050800X0.660400X-0.660400X0.660400X0.660400X-0.660400X0.660400X-0.660400X-0.660400X0*%
%ADD12C,1.422400*%
%ADD13RoundRect,0.050800X-0.850000X-0.850000X0.850000X-0.850000X0.850000X0.850000X-0.850000X0.850000X0*%
%ADD14O,1.801600X1.801600*%
%ADD15C,3.101600*%
%ADD16RoundRect,0.050800X0.850000X0.850000X-0.850000X0.850000X-0.850000X-0.850000X0.850000X-0.850000X0*%
%ADD17RoundRect,0.050800X0.850000X-0.850000X0.850000X0.850000X-0.850000X0.850000X-0.850000X-0.850000X0*%
G04 APERTURE END LIST*
D10*
X162306000Y-46863000D03*
X164846000Y-46863000D03*
D11*
X133731000Y-70358000D03*
D12*
X136271000Y-70358000D03*
X138811000Y-70358000D03*
X141351000Y-70358000D03*
X143891000Y-70358000D03*
X146431000Y-70358000D03*
X148971000Y-70358000D03*
X151511000Y-70358000D03*
X154051000Y-70358000D03*
X156591000Y-70358000D03*
X159131000Y-70358000D03*
X161671000Y-70358000D03*
X164211000Y-70358000D03*
X166751000Y-70358000D03*
X166751000Y-62738000D03*
X164211000Y-62738000D03*
X161671000Y-62738000D03*
X159131000Y-62738000D03*
X156591000Y-62738000D03*
X154051000Y-62738000D03*
X151511000Y-62738000D03*
X148971000Y-62738000D03*
X146431000Y-62738000D03*
X143891000Y-62738000D03*
X141351000Y-62738000D03*
X138811000Y-62738000D03*
X136271000Y-62738000D03*
X133731000Y-62738000D03*
D13*
X159385000Y-81280000D03*
D14*
X159385000Y-83820000D03*
X159385000Y-86360000D03*
X159385000Y-88900000D03*
D10*
X126980000Y-106172000D03*
X124440000Y-106172000D03*
D15*
X108683000Y-46230000D03*
D10*
X127528000Y-93472000D03*
X130068000Y-93472000D03*
D13*
X144145000Y-78740000D03*
D14*
X144145000Y-81280000D03*
X144145000Y-83820000D03*
X144145000Y-86360000D03*
X144145000Y-88900000D03*
X144145000Y-91440000D03*
D10*
X183769000Y-110744000D03*
X186309000Y-110744000D03*
X186690000Y-53594000D03*
X189230000Y-53594000D03*
D15*
X108683000Y-127930000D03*
D10*
X183769000Y-115570000D03*
X186309000Y-115570000D03*
D15*
X188383000Y-46230000D03*
D16*
X168783000Y-81666000D03*
D14*
X168783000Y-79126000D03*
D10*
X184277000Y-86868000D03*
X186817000Y-86868000D03*
X128143000Y-110109000D03*
X130683000Y-110109000D03*
X114681000Y-113030000D03*
X117221000Y-113030000D03*
D17*
X147193000Y-45212000D03*
D14*
X149733000Y-45212000D03*
X152273000Y-45212000D03*
X154813000Y-45212000D03*
X157353000Y-45212000D03*
D15*
X188383000Y-127930000D03*
D13*
X111633000Y-102108000D03*
D14*
X111633000Y-104648000D03*
D13*
X111506000Y-94615000D03*
D14*
X111506000Y-97155000D03*
D13*
X194945000Y-62992000D03*
D14*
X197485000Y-62992000D03*
X194945000Y-65532000D03*
X197485000Y-65532000D03*
X194945000Y-68072000D03*
X197485000Y-68072000D03*
X194945000Y-70612000D03*
X197485000Y-70612000D03*
X194945000Y-73152000D03*
X197485000Y-73152000D03*
X194945000Y-75692000D03*
X197485000Y-75692000D03*
X194945000Y-78232000D03*
X197485000Y-78232000D03*
X194945000Y-80772000D03*
X197485000Y-80772000D03*
X194945000Y-83312000D03*
X197485000Y-83312000D03*
X194945000Y-85852000D03*
X197485000Y-85852000D03*
X194945000Y-88392000D03*
X197485000Y-88392000D03*
X194945000Y-90932000D03*
X197485000Y-90932000D03*
X194945000Y-93472000D03*
X197485000Y-93472000D03*
X194945000Y-96012000D03*
X197485000Y-96012000D03*
X194945000Y-98552000D03*
X197485000Y-98552000D03*
X194945000Y-101092000D03*
X197485000Y-101092000D03*
X194945000Y-103632000D03*
X197485000Y-103632000D03*
X194945000Y-106172000D03*
X197485000Y-106172000D03*
X194945000Y-108712000D03*
X197485000Y-108712000D03*
X194945000Y-111252000D03*
X197485000Y-111252000D03*
M02*
