%TF.GenerationSoftware,KiCad,Pcbnew,(6.0.2)*%
%TF.CreationDate,2022-04-25T16:55:37-06:00*%
%TF.ProjectId,ColoradoCUBE_Payload,436f6c6f-7261-4646-9f43-5542455f5061,rev?*%
%TF.SameCoordinates,Original*%
%TF.FileFunction,Legend,Top*%
%TF.FilePolarity,Positive*%
%FSLAX46Y46*%
G04 Gerber Fmt 4.6, Leading zero omitted, Abs format (unit mm)*
G04 Created by KiCad (PCBNEW (6.0.2)) date 2022-04-25 16:55:37*
%MOMM*%
%LPD*%
G01*
G04 APERTURE LIST*
%ADD10C,0.500000*%
%ADD11C,0.150000*%
%ADD12C,0.120000*%
G04 APERTURE END LIST*
D10*
X118556079Y-127743857D02*
X118406401Y-127876904D01*
X117990627Y-128009952D01*
X117724532Y-128009952D01*
X117342020Y-127876904D01*
X117109187Y-127610809D01*
X117009401Y-127344714D01*
X116942877Y-126812523D01*
X116992770Y-126413380D01*
X117192341Y-125881190D01*
X117358651Y-125615095D01*
X117658008Y-125349000D01*
X118073782Y-125215952D01*
X118339877Y-125215952D01*
X118722389Y-125349000D01*
X118838806Y-125482047D01*
X120119389Y-128009952D02*
X119869925Y-127876904D01*
X119753508Y-127743857D01*
X119653722Y-127477761D01*
X119753508Y-126679476D01*
X119919818Y-126413380D01*
X120069496Y-126280333D01*
X120352222Y-126147285D01*
X120751365Y-126147285D01*
X121000829Y-126280333D01*
X121117246Y-126413380D01*
X121217032Y-126679476D01*
X121117246Y-127477761D01*
X120950937Y-127743857D01*
X120801258Y-127876904D01*
X120518532Y-128009952D01*
X120119389Y-128009952D01*
X122647294Y-128009952D02*
X122397829Y-127876904D01*
X122298044Y-127610809D01*
X122597401Y-125215952D01*
X124110818Y-128009952D02*
X123861353Y-127876904D01*
X123744937Y-127743857D01*
X123645151Y-127477761D01*
X123744937Y-126679476D01*
X123911246Y-126413380D01*
X124060925Y-126280333D01*
X124343651Y-126147285D01*
X124742794Y-126147285D01*
X124992258Y-126280333D01*
X125108675Y-126413380D01*
X125208460Y-126679476D01*
X125108675Y-127477761D01*
X124942365Y-127743857D01*
X124792687Y-127876904D01*
X124509960Y-128009952D01*
X124110818Y-128009952D01*
X126239579Y-128009952D02*
X126472413Y-126147285D01*
X126405889Y-126679476D02*
X126572198Y-126413380D01*
X126721877Y-126280333D01*
X127004603Y-126147285D01*
X127270698Y-126147285D01*
X129166627Y-128009952D02*
X129349568Y-126546428D01*
X129249782Y-126280333D01*
X129000318Y-126147285D01*
X128468127Y-126147285D01*
X128185401Y-126280333D01*
X129183258Y-127876904D02*
X128900532Y-128009952D01*
X128235294Y-128009952D01*
X127985829Y-127876904D01*
X127886044Y-127610809D01*
X127919306Y-127344714D01*
X128085615Y-127078619D01*
X128368341Y-126945571D01*
X129033579Y-126945571D01*
X129316306Y-126812523D01*
X131694532Y-128009952D02*
X132043782Y-125215952D01*
X131711163Y-127876904D02*
X131428437Y-128009952D01*
X130896246Y-128009952D01*
X130646782Y-127876904D01*
X130530365Y-127743857D01*
X130430579Y-127477761D01*
X130530365Y-126679476D01*
X130696675Y-126413380D01*
X130846353Y-126280333D01*
X131129079Y-126147285D01*
X131661270Y-126147285D01*
X131910734Y-126280333D01*
X133424151Y-128009952D02*
X133174687Y-127876904D01*
X133058270Y-127743857D01*
X132958484Y-127477761D01*
X133058270Y-126679476D01*
X133224579Y-126413380D01*
X133374258Y-126280333D01*
X133656984Y-126147285D01*
X134056127Y-126147285D01*
X134305591Y-126280333D01*
X134422008Y-126413380D01*
X134521794Y-126679476D01*
X134422008Y-127477761D01*
X134255698Y-127743857D01*
X134106020Y-127876904D01*
X133823294Y-128009952D01*
X133424151Y-128009952D01*
X137182746Y-127743857D02*
X137033068Y-127876904D01*
X136617294Y-128009952D01*
X136351198Y-128009952D01*
X135968687Y-127876904D01*
X135735853Y-127610809D01*
X135636068Y-127344714D01*
X135569544Y-126812523D01*
X135619437Y-126413380D01*
X135819008Y-125881190D01*
X135985318Y-125615095D01*
X136284675Y-125349000D01*
X136700448Y-125215952D01*
X136966544Y-125215952D01*
X137349056Y-125349000D01*
X137465472Y-125482047D01*
X138696163Y-125215952D02*
X138413437Y-127477761D01*
X138513222Y-127743857D01*
X138629639Y-127876904D01*
X138879103Y-128009952D01*
X139411294Y-128009952D01*
X139694020Y-127876904D01*
X139843698Y-127743857D01*
X140010008Y-127477761D01*
X140292734Y-125215952D01*
X142388234Y-126546428D02*
X142770746Y-126679476D01*
X142887163Y-126812523D01*
X142986948Y-127078619D01*
X142937056Y-127477761D01*
X142770746Y-127743857D01*
X142621068Y-127876904D01*
X142338341Y-128009952D01*
X141273960Y-128009952D01*
X141623210Y-125215952D01*
X142554544Y-125215952D01*
X142804008Y-125349000D01*
X142920425Y-125482047D01*
X143020210Y-125748142D01*
X142986948Y-126014238D01*
X142820639Y-126280333D01*
X142670960Y-126413380D01*
X142388234Y-126546428D01*
X141456901Y-126546428D01*
X144250901Y-126546428D02*
X145182234Y-126546428D01*
X145398437Y-128009952D02*
X144067960Y-128009952D01*
X144417210Y-125215952D01*
X145747687Y-125215952D01*
X149838901Y-126546428D02*
X150221413Y-126679476D01*
X150337829Y-126812523D01*
X150437615Y-127078619D01*
X150387722Y-127477761D01*
X150221413Y-127743857D01*
X150071734Y-127876904D01*
X149789008Y-128009952D01*
X148724627Y-128009952D01*
X149073877Y-125215952D01*
X150005210Y-125215952D01*
X150254675Y-125349000D01*
X150371091Y-125482047D01*
X150470877Y-125748142D01*
X150437615Y-126014238D01*
X150271306Y-126280333D01*
X150121627Y-126413380D01*
X149838901Y-126546428D01*
X148907568Y-126546428D01*
X152948889Y-126147285D02*
X152716056Y-128009952D01*
X151751460Y-126147285D02*
X151568520Y-127610809D01*
X151668306Y-127876904D01*
X151917770Y-128009952D01*
X152316913Y-128009952D01*
X152599639Y-127876904D01*
X152749318Y-127743857D01*
X153930115Y-127876904D02*
X154179579Y-128009952D01*
X154711770Y-128009952D01*
X154994496Y-127876904D01*
X155160806Y-127610809D01*
X155177437Y-127477761D01*
X155077651Y-127211666D01*
X154828187Y-127078619D01*
X154429044Y-127078619D01*
X154179579Y-126945571D01*
X154079794Y-126679476D01*
X154096425Y-126546428D01*
X154262734Y-126280333D01*
X154545460Y-126147285D01*
X154944603Y-126147285D01*
X155194068Y-126280333D01*
X156441389Y-126945571D02*
X158570151Y-126945571D01*
X159651163Y-127876904D02*
X160033675Y-128009952D01*
X160698913Y-128009952D01*
X160981639Y-127876904D01*
X161131318Y-127743857D01*
X161297627Y-127477761D01*
X161330889Y-127211666D01*
X161231103Y-126945571D01*
X161114687Y-126812523D01*
X160865222Y-126679476D01*
X160349663Y-126546428D01*
X160100198Y-126413380D01*
X159983782Y-126280333D01*
X159883996Y-126014238D01*
X159917258Y-125748142D01*
X160083568Y-125482047D01*
X160233246Y-125349000D01*
X160515972Y-125215952D01*
X161181210Y-125215952D01*
X161563722Y-125349000D01*
X163509544Y-127876904D02*
X163226818Y-128009952D01*
X162694627Y-128009952D01*
X162445163Y-127876904D01*
X162345377Y-127610809D01*
X162478425Y-126546428D01*
X162644734Y-126280333D01*
X162927460Y-126147285D01*
X163459651Y-126147285D01*
X163709115Y-126280333D01*
X163808901Y-126546428D01*
X163775639Y-126812523D01*
X162411901Y-127078619D01*
X165056222Y-126147285D02*
X164823389Y-128009952D01*
X165022960Y-126413380D02*
X165172639Y-126280333D01*
X165455365Y-126147285D01*
X165854508Y-126147285D01*
X166103972Y-126280333D01*
X166203758Y-126546428D01*
X166020818Y-128009952D01*
X167234877Y-127876904D02*
X167484341Y-128009952D01*
X168016532Y-128009952D01*
X168299258Y-127876904D01*
X168465568Y-127610809D01*
X168482198Y-127477761D01*
X168382413Y-127211666D01*
X168132948Y-127078619D01*
X167733806Y-127078619D01*
X167484341Y-126945571D01*
X167384556Y-126679476D01*
X167401187Y-126546428D01*
X167567496Y-126280333D01*
X167850222Y-126147285D01*
X168249365Y-126147285D01*
X168498829Y-126280333D01*
X170012246Y-128009952D02*
X169762782Y-127876904D01*
X169646365Y-127743857D01*
X169546579Y-127477761D01*
X169646365Y-126679476D01*
X169812675Y-126413380D01*
X169962353Y-126280333D01*
X170245079Y-126147285D01*
X170644222Y-126147285D01*
X170893687Y-126280333D01*
X171010103Y-126413380D01*
X171109889Y-126679476D01*
X171010103Y-127477761D01*
X170843794Y-127743857D01*
X170694115Y-127876904D01*
X170411389Y-128009952D01*
X170012246Y-128009952D01*
X172141008Y-128009952D02*
X172373841Y-126147285D01*
X172307318Y-126679476D02*
X172473627Y-126413380D01*
X172623306Y-126280333D01*
X172906032Y-126147285D01*
X173172127Y-126147285D01*
X173754210Y-127876904D02*
X174003675Y-128009952D01*
X174535865Y-128009952D01*
X174818591Y-127876904D01*
X174984901Y-127610809D01*
X175001532Y-127477761D01*
X174901746Y-127211666D01*
X174652282Y-127078619D01*
X174253139Y-127078619D01*
X174003675Y-126945571D01*
X173903889Y-126679476D01*
X173920520Y-126546428D01*
X174086829Y-126280333D01*
X174369556Y-126147285D01*
X174768698Y-126147285D01*
X175018163Y-126280333D01*
D11*
X166339780Y-84771952D02*
X165339780Y-84771952D01*
X165815971Y-84771952D02*
X165815971Y-84200523D01*
X166339780Y-84200523D02*
X165339780Y-84200523D01*
X166292161Y-83343380D02*
X166339780Y-83438619D01*
X166339780Y-83629095D01*
X166292161Y-83724333D01*
X166196923Y-83771952D01*
X165815971Y-83771952D01*
X165720733Y-83724333D01*
X165673114Y-83629095D01*
X165673114Y-83438619D01*
X165720733Y-83343380D01*
X165815971Y-83295761D01*
X165911209Y-83295761D01*
X166006447Y-83771952D01*
X166339780Y-82438619D02*
X165815971Y-82438619D01*
X165720733Y-82486238D01*
X165673114Y-82581476D01*
X165673114Y-82771952D01*
X165720733Y-82867190D01*
X166292161Y-82438619D02*
X166339780Y-82533857D01*
X166339780Y-82771952D01*
X166292161Y-82867190D01*
X166196923Y-82914809D01*
X166101685Y-82914809D01*
X166006447Y-82867190D01*
X165958828Y-82771952D01*
X165958828Y-82533857D01*
X165911209Y-82438619D01*
X165673114Y-82105285D02*
X165673114Y-81724333D01*
X165339780Y-81962428D02*
X166196923Y-81962428D01*
X166292161Y-81914809D01*
X166339780Y-81819571D01*
X166339780Y-81724333D01*
X166339780Y-81391000D02*
X165673114Y-81391000D01*
X165339780Y-81391000D02*
X165387400Y-81438619D01*
X165435019Y-81391000D01*
X165387400Y-81343380D01*
X165339780Y-81391000D01*
X165435019Y-81391000D01*
X165673114Y-80914809D02*
X166339780Y-80914809D01*
X165768352Y-80914809D02*
X165720733Y-80867190D01*
X165673114Y-80771952D01*
X165673114Y-80629095D01*
X165720733Y-80533857D01*
X165815971Y-80486238D01*
X166339780Y-80486238D01*
X165673114Y-79581476D02*
X166482638Y-79581476D01*
X166577876Y-79629095D01*
X166625495Y-79676714D01*
X166673114Y-79771952D01*
X166673114Y-79914809D01*
X166625495Y-80010047D01*
X166292161Y-79581476D02*
X166339780Y-79676714D01*
X166339780Y-79867190D01*
X166292161Y-79962428D01*
X166244542Y-80010047D01*
X166149304Y-80057666D01*
X165863590Y-80057666D01*
X165768352Y-80010047D01*
X165720733Y-79962428D01*
X165673114Y-79867190D01*
X165673114Y-79676714D01*
X165720733Y-79581476D01*
X166339780Y-78343380D02*
X165339780Y-78343380D01*
X165339780Y-77962428D01*
X165387400Y-77867190D01*
X165435019Y-77819571D01*
X165530257Y-77771952D01*
X165673114Y-77771952D01*
X165768352Y-77819571D01*
X165815971Y-77867190D01*
X165863590Y-77962428D01*
X165863590Y-78343380D01*
X166339780Y-76914809D02*
X165815971Y-76914809D01*
X165720733Y-76962428D01*
X165673114Y-77057666D01*
X165673114Y-77248142D01*
X165720733Y-77343380D01*
X166292161Y-76914809D02*
X166339780Y-77010047D01*
X166339780Y-77248142D01*
X166292161Y-77343380D01*
X166196923Y-77391000D01*
X166101685Y-77391000D01*
X166006447Y-77343380D01*
X165958828Y-77248142D01*
X165958828Y-77010047D01*
X165911209Y-76914809D01*
X166339780Y-76010047D02*
X165339780Y-76010047D01*
X166292161Y-76010047D02*
X166339780Y-76105285D01*
X166339780Y-76295761D01*
X166292161Y-76391000D01*
X166244542Y-76438619D01*
X166149304Y-76486238D01*
X165863590Y-76486238D01*
X165768352Y-76438619D01*
X165720733Y-76391000D01*
X165673114Y-76295761D01*
X165673114Y-76105285D01*
X165720733Y-76010047D01*
X152853047Y-42124380D02*
X152853047Y-42838666D01*
X152805428Y-42981523D01*
X152710190Y-43076761D01*
X152567333Y-43124380D01*
X152472095Y-43124380D01*
X153281619Y-43076761D02*
X153424476Y-43124380D01*
X153662571Y-43124380D01*
X153757809Y-43076761D01*
X153805428Y-43029142D01*
X153853047Y-42933904D01*
X153853047Y-42838666D01*
X153805428Y-42743428D01*
X153757809Y-42695809D01*
X153662571Y-42648190D01*
X153472095Y-42600571D01*
X153376857Y-42552952D01*
X153329238Y-42505333D01*
X153281619Y-42410095D01*
X153281619Y-42314857D01*
X153329238Y-42219619D01*
X153376857Y-42172000D01*
X153472095Y-42124380D01*
X153710190Y-42124380D01*
X153853047Y-42172000D01*
X154138761Y-42124380D02*
X154710190Y-42124380D01*
X154424476Y-43124380D02*
X154424476Y-42124380D01*
X155043523Y-42743428D02*
X155805428Y-42743428D01*
X156567333Y-43505333D02*
X156519714Y-43457714D01*
X156424476Y-43314857D01*
X156376857Y-43219619D01*
X156329238Y-43076761D01*
X156281619Y-42838666D01*
X156281619Y-42648190D01*
X156329238Y-42410095D01*
X156376857Y-42267238D01*
X156424476Y-42172000D01*
X156519714Y-42029142D01*
X156567333Y-41981523D01*
X156805428Y-42124380D02*
X157376857Y-42124380D01*
X157091142Y-43124380D02*
X157091142Y-42124380D01*
X157710190Y-43124380D02*
X157710190Y-42124380D01*
X158043523Y-42838666D01*
X158376857Y-42124380D01*
X158376857Y-43124380D01*
X158853047Y-43124380D02*
X158853047Y-42124380D01*
X159234000Y-42124380D01*
X159329238Y-42172000D01*
X159376857Y-42219619D01*
X159424476Y-42314857D01*
X159424476Y-42457714D01*
X159376857Y-42552952D01*
X159329238Y-42600571D01*
X159234000Y-42648190D01*
X158853047Y-42648190D01*
X160376857Y-43124380D02*
X159805428Y-43124380D01*
X160091142Y-43124380D02*
X160091142Y-42124380D01*
X159995904Y-42267238D01*
X159900666Y-42362476D01*
X159805428Y-42410095D01*
X161329238Y-43124380D02*
X160757809Y-43124380D01*
X161043523Y-43124380D02*
X161043523Y-42124380D01*
X160948285Y-42267238D01*
X160853047Y-42362476D01*
X160757809Y-42410095D01*
X161662571Y-42124380D02*
X162329238Y-42124380D01*
X161900666Y-43124380D01*
X162614952Y-43505333D02*
X162662571Y-43457714D01*
X162757809Y-43314857D01*
X162805428Y-43219619D01*
X162853047Y-43076761D01*
X162900666Y-42838666D01*
X162900666Y-42648190D01*
X162853047Y-42410095D01*
X162805428Y-42267238D01*
X162757809Y-42172000D01*
X162662571Y-42029142D01*
X162614952Y-41981523D01*
D10*
X148694389Y-85845952D02*
X149043639Y-83051952D01*
X150024865Y-85845952D02*
X150374115Y-83051952D01*
X151055984Y-85047666D01*
X152236782Y-83051952D01*
X151887532Y-85845952D01*
X153567258Y-83051952D02*
X153284532Y-85313761D01*
X153384318Y-85579857D01*
X153500734Y-85712904D01*
X153750198Y-85845952D01*
X154282389Y-85845952D01*
X154565115Y-85712904D01*
X154714794Y-85579857D01*
X154881103Y-85313761D01*
X155163829Y-83051952D01*
D11*
X109902664Y-51268380D02*
X109902664Y-51982666D01*
X109855045Y-52125523D01*
X109759807Y-52220761D01*
X109616950Y-52268380D01*
X109521712Y-52268380D01*
X110331236Y-51363619D02*
X110378855Y-51316000D01*
X110474093Y-51268380D01*
X110712188Y-51268380D01*
X110807426Y-51316000D01*
X110855045Y-51363619D01*
X110902664Y-51458857D01*
X110902664Y-51554095D01*
X110855045Y-51696952D01*
X110283617Y-52268380D01*
X110902664Y-52268380D01*
X120650095Y-110958380D02*
X120650095Y-111767904D01*
X120697714Y-111863142D01*
X120745333Y-111910761D01*
X120840571Y-111958380D01*
X121031047Y-111958380D01*
X121126285Y-111910761D01*
X121173904Y-111863142D01*
X121221523Y-111767904D01*
X121221523Y-110958380D01*
X122173904Y-110958380D02*
X121697714Y-110958380D01*
X121650095Y-111434571D01*
X121697714Y-111386952D01*
X121792952Y-111339333D01*
X122031047Y-111339333D01*
X122126285Y-111386952D01*
X122173904Y-111434571D01*
X122221523Y-111529809D01*
X122221523Y-111767904D01*
X122173904Y-111863142D01*
X122126285Y-111910761D01*
X122031047Y-111958380D01*
X121792952Y-111958380D01*
X121697714Y-111910761D01*
X121650095Y-111863142D01*
X121539000Y-114641380D02*
X121539000Y-114879476D01*
X121300904Y-114784238D02*
X121539000Y-114879476D01*
X121777095Y-114784238D01*
X121396142Y-115069952D02*
X121539000Y-114879476D01*
X121681857Y-115069952D01*
X137033095Y-108164380D02*
X137033095Y-108973904D01*
X137080714Y-109069142D01*
X137128333Y-109116761D01*
X137223571Y-109164380D01*
X137414047Y-109164380D01*
X137509285Y-109116761D01*
X137556904Y-109069142D01*
X137604523Y-108973904D01*
X137604523Y-108164380D01*
X137985476Y-108164380D02*
X138604523Y-108164380D01*
X138271190Y-108545333D01*
X138414047Y-108545333D01*
X138509285Y-108592952D01*
X138556904Y-108640571D01*
X138604523Y-108735809D01*
X138604523Y-108973904D01*
X138556904Y-109069142D01*
X138509285Y-109116761D01*
X138414047Y-109164380D01*
X138128333Y-109164380D01*
X138033095Y-109116761D01*
X137985476Y-109069142D01*
X134453380Y-115443000D02*
X134691476Y-115443000D01*
X134596238Y-115681095D02*
X134691476Y-115443000D01*
X134596238Y-115204904D01*
X134881952Y-115585857D02*
X134691476Y-115443000D01*
X134881952Y-115300142D01*
X134453380Y-114681000D02*
X134691476Y-114681000D01*
X134596238Y-114919095D02*
X134691476Y-114681000D01*
X134596238Y-114442904D01*
X134881952Y-114823857D02*
X134691476Y-114681000D01*
X134881952Y-114538142D01*
X171196095Y-103592380D02*
X171196095Y-104401904D01*
X171243714Y-104497142D01*
X171291333Y-104544761D01*
X171386571Y-104592380D01*
X171577047Y-104592380D01*
X171672285Y-104544761D01*
X171719904Y-104497142D01*
X171767523Y-104401904D01*
X171767523Y-103592380D01*
X172196095Y-103687619D02*
X172243714Y-103640000D01*
X172338952Y-103592380D01*
X172577047Y-103592380D01*
X172672285Y-103640000D01*
X172719904Y-103687619D01*
X172767523Y-103782857D01*
X172767523Y-103878095D01*
X172719904Y-104020952D01*
X172148476Y-104592380D01*
X172767523Y-104592380D01*
X166243095Y-64984380D02*
X166243095Y-65793904D01*
X166290714Y-65889142D01*
X166338333Y-65936761D01*
X166433571Y-65984380D01*
X166624047Y-65984380D01*
X166719285Y-65936761D01*
X166766904Y-65889142D01*
X166814523Y-65793904D01*
X166814523Y-64984380D01*
X167814523Y-65984380D02*
X167243095Y-65984380D01*
X167528809Y-65984380D02*
X167528809Y-64984380D01*
X167433571Y-65127238D01*
X167338333Y-65222476D01*
X167243095Y-65270095D01*
X165568380Y-61976000D02*
X165806476Y-61976000D01*
X165711238Y-62214095D02*
X165806476Y-61976000D01*
X165711238Y-61737904D01*
X165996952Y-62118857D02*
X165806476Y-61976000D01*
X165996952Y-61833142D01*
X149215142Y-113958666D02*
X149262761Y-114006285D01*
X149310380Y-114149142D01*
X149310380Y-114244380D01*
X149262761Y-114387238D01*
X149167523Y-114482476D01*
X149072285Y-114530095D01*
X148881809Y-114577714D01*
X148738952Y-114577714D01*
X148548476Y-114530095D01*
X148453238Y-114482476D01*
X148358000Y-114387238D01*
X148310380Y-114244380D01*
X148310380Y-114149142D01*
X148358000Y-114006285D01*
X148405619Y-113958666D01*
X149310380Y-113006285D02*
X149310380Y-113577714D01*
X149310380Y-113292000D02*
X148310380Y-113292000D01*
X148453238Y-113387238D01*
X148548476Y-113482476D01*
X148596095Y-113577714D01*
X153543095Y-107129330D02*
X153543095Y-107938854D01*
X153590714Y-108034092D01*
X153638333Y-108081711D01*
X153733571Y-108129330D01*
X153924047Y-108129330D01*
X154019285Y-108081711D01*
X154066904Y-108034092D01*
X154114523Y-107938854D01*
X154114523Y-107129330D01*
X155019285Y-107462664D02*
X155019285Y-108129330D01*
X154781190Y-107081711D02*
X154543095Y-107795997D01*
X155162142Y-107795997D01*
X154305000Y-110450380D02*
X154305000Y-110688476D01*
X154066904Y-110593238D02*
X154305000Y-110688476D01*
X154543095Y-110593238D01*
X154162142Y-110878952D02*
X154305000Y-110688476D01*
X154447857Y-110878952D01*
X182918095Y-50792380D02*
X183489523Y-50792380D01*
X183203809Y-51792380D02*
X183203809Y-50792380D01*
X183822857Y-51792380D02*
X183822857Y-50792380D01*
X184203809Y-50792380D01*
X184299047Y-50840000D01*
X184346666Y-50887619D01*
X184394285Y-50982857D01*
X184394285Y-51125714D01*
X184346666Y-51220952D01*
X184299047Y-51268571D01*
X184203809Y-51316190D01*
X183822857Y-51316190D01*
X184727619Y-50792380D02*
X185394285Y-50792380D01*
X184965714Y-51792380D01*
X176503333Y-42736380D02*
X176170000Y-42260190D01*
X175931904Y-42736380D02*
X175931904Y-41736380D01*
X176312857Y-41736380D01*
X176408095Y-41784000D01*
X176455714Y-41831619D01*
X176503333Y-41926857D01*
X176503333Y-42069714D01*
X176455714Y-42164952D01*
X176408095Y-42212571D01*
X176312857Y-42260190D01*
X175931904Y-42260190D01*
X177074761Y-42164952D02*
X176979523Y-42117333D01*
X176931904Y-42069714D01*
X176884285Y-41974476D01*
X176884285Y-41926857D01*
X176931904Y-41831619D01*
X176979523Y-41784000D01*
X177074761Y-41736380D01*
X177265238Y-41736380D01*
X177360476Y-41784000D01*
X177408095Y-41831619D01*
X177455714Y-41926857D01*
X177455714Y-41974476D01*
X177408095Y-42069714D01*
X177360476Y-42117333D01*
X177265238Y-42164952D01*
X177074761Y-42164952D01*
X176979523Y-42212571D01*
X176931904Y-42260190D01*
X176884285Y-42355428D01*
X176884285Y-42545904D01*
X176931904Y-42641142D01*
X176979523Y-42688761D01*
X177074761Y-42736380D01*
X177265238Y-42736380D01*
X177360476Y-42688761D01*
X177408095Y-42641142D01*
X177455714Y-42545904D01*
X177455714Y-42355428D01*
X177408095Y-42260190D01*
X177360476Y-42212571D01*
X177265238Y-42164952D01*
X167282904Y-47829380D02*
X167282904Y-46829380D01*
X167521000Y-46829380D01*
X167663857Y-46877000D01*
X167759095Y-46972238D01*
X167806714Y-47067476D01*
X167854333Y-47257952D01*
X167854333Y-47400809D01*
X167806714Y-47591285D01*
X167759095Y-47686523D01*
X167663857Y-47781761D01*
X167521000Y-47829380D01*
X167282904Y-47829380D01*
X168235285Y-46924619D02*
X168282904Y-46877000D01*
X168378142Y-46829380D01*
X168616238Y-46829380D01*
X168711476Y-46877000D01*
X168759095Y-46924619D01*
X168806714Y-47019857D01*
X168806714Y-47115095D01*
X168759095Y-47257952D01*
X168187666Y-47829380D01*
X168806714Y-47829380D01*
X170648333Y-100955142D02*
X170600714Y-101002761D01*
X170457857Y-101050380D01*
X170362619Y-101050380D01*
X170219761Y-101002761D01*
X170124523Y-100907523D01*
X170076904Y-100812285D01*
X170029285Y-100621809D01*
X170029285Y-100478952D01*
X170076904Y-100288476D01*
X170124523Y-100193238D01*
X170219761Y-100098000D01*
X170362619Y-100050380D01*
X170457857Y-100050380D01*
X170600714Y-100098000D01*
X170648333Y-100145619D01*
X171124523Y-101050380D02*
X171315000Y-101050380D01*
X171410238Y-101002761D01*
X171457857Y-100955142D01*
X171553095Y-100812285D01*
X171600714Y-100621809D01*
X171600714Y-100240857D01*
X171553095Y-100145619D01*
X171505476Y-100098000D01*
X171410238Y-100050380D01*
X171219761Y-100050380D01*
X171124523Y-100098000D01*
X171076904Y-100145619D01*
X171029285Y-100240857D01*
X171029285Y-100478952D01*
X171076904Y-100574190D01*
X171124523Y-100621809D01*
X171219761Y-100669428D01*
X171410238Y-100669428D01*
X171505476Y-100621809D01*
X171553095Y-100574190D01*
X171600714Y-100478952D01*
X148931333Y-52286142D02*
X148883714Y-52333761D01*
X148740857Y-52381380D01*
X148645619Y-52381380D01*
X148502761Y-52333761D01*
X148407523Y-52238523D01*
X148359904Y-52143285D01*
X148312285Y-51952809D01*
X148312285Y-51809952D01*
X148359904Y-51619476D01*
X148407523Y-51524238D01*
X148502761Y-51429000D01*
X148645619Y-51381380D01*
X148740857Y-51381380D01*
X148883714Y-51429000D01*
X148931333Y-51476619D01*
X149264666Y-51381380D02*
X149883714Y-51381380D01*
X149550380Y-51762333D01*
X149693238Y-51762333D01*
X149788476Y-51809952D01*
X149836095Y-51857571D01*
X149883714Y-51952809D01*
X149883714Y-52190904D01*
X149836095Y-52286142D01*
X149788476Y-52333761D01*
X149693238Y-52381380D01*
X149407523Y-52381380D01*
X149312285Y-52333761D01*
X149264666Y-52286142D01*
X177887333Y-107813142D02*
X177839714Y-107860761D01*
X177696857Y-107908380D01*
X177601619Y-107908380D01*
X177458761Y-107860761D01*
X177363523Y-107765523D01*
X177315904Y-107670285D01*
X177268285Y-107479809D01*
X177268285Y-107336952D01*
X177315904Y-107146476D01*
X177363523Y-107051238D01*
X177458761Y-106956000D01*
X177601619Y-106908380D01*
X177696857Y-106908380D01*
X177839714Y-106956000D01*
X177887333Y-107003619D01*
X178744476Y-107241714D02*
X178744476Y-107908380D01*
X178506380Y-106860761D02*
X178268285Y-107575047D01*
X178887333Y-107575047D01*
X159051666Y-78402380D02*
X159051666Y-79116666D01*
X159004047Y-79259523D01*
X158908809Y-79354761D01*
X158765952Y-79402380D01*
X158670714Y-79402380D01*
X159956428Y-78735714D02*
X159956428Y-79402380D01*
X159718333Y-78354761D02*
X159480238Y-79069047D01*
X160099285Y-79069047D01*
X123023333Y-92648380D02*
X122690000Y-92172190D01*
X122451904Y-92648380D02*
X122451904Y-91648380D01*
X122832857Y-91648380D01*
X122928095Y-91696000D01*
X122975714Y-91743619D01*
X123023333Y-91838857D01*
X123023333Y-91981714D01*
X122975714Y-92076952D01*
X122928095Y-92124571D01*
X122832857Y-92172190D01*
X122451904Y-92172190D01*
X123928095Y-91648380D02*
X123451904Y-91648380D01*
X123404285Y-92124571D01*
X123451904Y-92076952D01*
X123547142Y-92029333D01*
X123785238Y-92029333D01*
X123880476Y-92076952D01*
X123928095Y-92124571D01*
X123975714Y-92219809D01*
X123975714Y-92457904D01*
X123928095Y-92553142D01*
X123880476Y-92600761D01*
X123785238Y-92648380D01*
X123547142Y-92648380D01*
X123451904Y-92600761D01*
X123404285Y-92553142D01*
X196262666Y-59606380D02*
X196262666Y-60320666D01*
X196215047Y-60463523D01*
X196119809Y-60558761D01*
X195976952Y-60606380D01*
X195881714Y-60606380D01*
X197262666Y-60606380D02*
X196691238Y-60606380D01*
X196976952Y-60606380D02*
X196976952Y-59606380D01*
X196881714Y-59749238D01*
X196786476Y-59844476D01*
X196691238Y-59892095D01*
X115625714Y-83002380D02*
X115625714Y-82002380D01*
X115863809Y-82002380D01*
X116006666Y-82050000D01*
X116101904Y-82145238D01*
X116149523Y-82240476D01*
X116197142Y-82430952D01*
X116197142Y-82573809D01*
X116149523Y-82764285D01*
X116101904Y-82859523D01*
X116006666Y-82954761D01*
X115863809Y-83002380D01*
X115625714Y-83002380D01*
X117149523Y-83002380D02*
X116578095Y-83002380D01*
X116863809Y-83002380D02*
X116863809Y-82002380D01*
X116768571Y-82145238D01*
X116673333Y-82240476D01*
X116578095Y-82288095D01*
X118101904Y-83002380D02*
X117530476Y-83002380D01*
X117816190Y-83002380D02*
X117816190Y-82002380D01*
X117720952Y-82145238D01*
X117625714Y-82240476D01*
X117530476Y-82288095D01*
X124418095Y-107624380D02*
X124989523Y-107624380D01*
X124703809Y-108624380D02*
X124703809Y-107624380D01*
X125322857Y-108624380D02*
X125322857Y-107624380D01*
X125703809Y-107624380D01*
X125799047Y-107672000D01*
X125846666Y-107719619D01*
X125894285Y-107814857D01*
X125894285Y-107957714D01*
X125846666Y-108052952D01*
X125799047Y-108100571D01*
X125703809Y-108148190D01*
X125322857Y-108148190D01*
X126275238Y-107719619D02*
X126322857Y-107672000D01*
X126418095Y-107624380D01*
X126656190Y-107624380D01*
X126751428Y-107672000D01*
X126799047Y-107719619D01*
X126846666Y-107814857D01*
X126846666Y-107910095D01*
X126799047Y-108052952D01*
X126227619Y-108624380D01*
X126846666Y-108624380D01*
X122642333Y-99252380D02*
X122309000Y-98776190D01*
X122070904Y-99252380D02*
X122070904Y-98252380D01*
X122451857Y-98252380D01*
X122547095Y-98300000D01*
X122594714Y-98347619D01*
X122642333Y-98442857D01*
X122642333Y-98585714D01*
X122594714Y-98680952D01*
X122547095Y-98728571D01*
X122451857Y-98776190D01*
X122070904Y-98776190D01*
X123499476Y-98252380D02*
X123309000Y-98252380D01*
X123213761Y-98300000D01*
X123166142Y-98347619D01*
X123070904Y-98490476D01*
X123023285Y-98680952D01*
X123023285Y-99061904D01*
X123070904Y-99157142D01*
X123118523Y-99204761D01*
X123213761Y-99252380D01*
X123404238Y-99252380D01*
X123499476Y-99204761D01*
X123547095Y-99157142D01*
X123594714Y-99061904D01*
X123594714Y-98823809D01*
X123547095Y-98728571D01*
X123499476Y-98680952D01*
X123404238Y-98633333D01*
X123213761Y-98633333D01*
X123118523Y-98680952D01*
X123070904Y-98728571D01*
X123023285Y-98823809D01*
X128689095Y-81653380D02*
X129260523Y-81653380D01*
X128974809Y-82653380D02*
X128974809Y-81653380D01*
X129593857Y-82653380D02*
X129593857Y-81653380D01*
X129974809Y-81653380D01*
X130070047Y-81701000D01*
X130117666Y-81748619D01*
X130165285Y-81843857D01*
X130165285Y-81986714D01*
X130117666Y-82081952D01*
X130070047Y-82129571D01*
X129974809Y-82177190D01*
X129593857Y-82177190D01*
X130736714Y-82081952D02*
X130641476Y-82034333D01*
X130593857Y-81986714D01*
X130546238Y-81891476D01*
X130546238Y-81843857D01*
X130593857Y-81748619D01*
X130641476Y-81701000D01*
X130736714Y-81653380D01*
X130927190Y-81653380D01*
X131022428Y-81701000D01*
X131070047Y-81748619D01*
X131117666Y-81843857D01*
X131117666Y-81891476D01*
X131070047Y-81986714D01*
X131022428Y-82034333D01*
X130927190Y-82081952D01*
X130736714Y-82081952D01*
X130641476Y-82129571D01*
X130593857Y-82177190D01*
X130546238Y-82272428D01*
X130546238Y-82462904D01*
X130593857Y-82558142D01*
X130641476Y-82605761D01*
X130736714Y-82653380D01*
X130927190Y-82653380D01*
X131022428Y-82605761D01*
X131070047Y-82558142D01*
X131117666Y-82462904D01*
X131117666Y-82272428D01*
X131070047Y-82177190D01*
X131022428Y-82129571D01*
X130927190Y-82081952D01*
X143557666Y-75144380D02*
X143557666Y-75858666D01*
X143510047Y-76001523D01*
X143414809Y-76096761D01*
X143271952Y-76144380D01*
X143176714Y-76144380D01*
X143938619Y-75144380D02*
X144557666Y-75144380D01*
X144224333Y-75525333D01*
X144367190Y-75525333D01*
X144462428Y-75572952D01*
X144510047Y-75620571D01*
X144557666Y-75715809D01*
X144557666Y-75953904D01*
X144510047Y-76049142D01*
X144462428Y-76096761D01*
X144367190Y-76144380D01*
X144081476Y-76144380D01*
X143986238Y-76096761D01*
X143938619Y-76049142D01*
X125309333Y-118594142D02*
X125261714Y-118641761D01*
X125118857Y-118689380D01*
X125023619Y-118689380D01*
X124880761Y-118641761D01*
X124785523Y-118546523D01*
X124737904Y-118451285D01*
X124690285Y-118260809D01*
X124690285Y-118117952D01*
X124737904Y-117927476D01*
X124785523Y-117832238D01*
X124880761Y-117737000D01*
X125023619Y-117689380D01*
X125118857Y-117689380D01*
X125261714Y-117737000D01*
X125309333Y-117784619D01*
X125690285Y-117784619D02*
X125737904Y-117737000D01*
X125833142Y-117689380D01*
X126071238Y-117689380D01*
X126166476Y-117737000D01*
X126214095Y-117784619D01*
X126261714Y-117879857D01*
X126261714Y-117975095D01*
X126214095Y-118117952D01*
X125642666Y-118689380D01*
X126261714Y-118689380D01*
X183807095Y-108196380D02*
X184378523Y-108196380D01*
X184092809Y-109196380D02*
X184092809Y-108196380D01*
X184711857Y-109196380D02*
X184711857Y-108196380D01*
X185092809Y-108196380D01*
X185188047Y-108244000D01*
X185235666Y-108291619D01*
X185283285Y-108386857D01*
X185283285Y-108529714D01*
X185235666Y-108624952D01*
X185188047Y-108672571D01*
X185092809Y-108720190D01*
X184711857Y-108720190D01*
X186235666Y-109196380D02*
X185664238Y-109196380D01*
X185949952Y-109196380D02*
X185949952Y-108196380D01*
X185854714Y-108339238D01*
X185759476Y-108434476D01*
X185664238Y-108482095D01*
X107307142Y-83002380D02*
X106973809Y-82526190D01*
X106735714Y-83002380D02*
X106735714Y-82002380D01*
X107116666Y-82002380D01*
X107211904Y-82050000D01*
X107259523Y-82097619D01*
X107307142Y-82192857D01*
X107307142Y-82335714D01*
X107259523Y-82430952D01*
X107211904Y-82478571D01*
X107116666Y-82526190D01*
X106735714Y-82526190D01*
X108259523Y-83002380D02*
X107688095Y-83002380D01*
X107973809Y-83002380D02*
X107973809Y-82002380D01*
X107878571Y-82145238D01*
X107783333Y-82240476D01*
X107688095Y-82288095D01*
X109116666Y-82002380D02*
X108926190Y-82002380D01*
X108830952Y-82050000D01*
X108783333Y-82097619D01*
X108688095Y-82240476D01*
X108640476Y-82430952D01*
X108640476Y-82811904D01*
X108688095Y-82907142D01*
X108735714Y-82954761D01*
X108830952Y-83002380D01*
X109021428Y-83002380D01*
X109116666Y-82954761D01*
X109164285Y-82907142D01*
X109211904Y-82811904D01*
X109211904Y-82573809D01*
X109164285Y-82478571D01*
X109116666Y-82430952D01*
X109021428Y-82383333D01*
X108830952Y-82383333D01*
X108735714Y-82430952D01*
X108688095Y-82478571D01*
X108640476Y-82573809D01*
X154773333Y-101411380D02*
X154440000Y-100935190D01*
X154201904Y-101411380D02*
X154201904Y-100411380D01*
X154582857Y-100411380D01*
X154678095Y-100459000D01*
X154725714Y-100506619D01*
X154773333Y-100601857D01*
X154773333Y-100744714D01*
X154725714Y-100839952D01*
X154678095Y-100887571D01*
X154582857Y-100935190D01*
X154201904Y-100935190D01*
X155154285Y-100506619D02*
X155201904Y-100459000D01*
X155297142Y-100411380D01*
X155535238Y-100411380D01*
X155630476Y-100459000D01*
X155678095Y-100506619D01*
X155725714Y-100601857D01*
X155725714Y-100697095D01*
X155678095Y-100839952D01*
X155106666Y-101411380D01*
X155725714Y-101411380D01*
X107434142Y-71826380D02*
X107100809Y-71350190D01*
X106862714Y-71826380D02*
X106862714Y-70826380D01*
X107243666Y-70826380D01*
X107338904Y-70874000D01*
X107386523Y-70921619D01*
X107434142Y-71016857D01*
X107434142Y-71159714D01*
X107386523Y-71254952D01*
X107338904Y-71302571D01*
X107243666Y-71350190D01*
X106862714Y-71350190D01*
X108386523Y-71826380D02*
X107815095Y-71826380D01*
X108100809Y-71826380D02*
X108100809Y-70826380D01*
X108005571Y-70969238D01*
X107910333Y-71064476D01*
X107815095Y-71112095D01*
X109243666Y-71159714D02*
X109243666Y-71826380D01*
X109005571Y-70778761D02*
X108767476Y-71493047D01*
X109386523Y-71493047D01*
X193040095Y-128214380D02*
X193040095Y-127214380D01*
X193040095Y-127690571D02*
X193611523Y-127690571D01*
X193611523Y-128214380D02*
X193611523Y-127214380D01*
X193992476Y-127214380D02*
X194611523Y-127214380D01*
X194278190Y-127595333D01*
X194421047Y-127595333D01*
X194516285Y-127642952D01*
X194563904Y-127690571D01*
X194611523Y-127785809D01*
X194611523Y-128023904D01*
X194563904Y-128119142D01*
X194516285Y-128166761D01*
X194421047Y-128214380D01*
X194135333Y-128214380D01*
X194040095Y-128166761D01*
X193992476Y-128119142D01*
X112776095Y-128722380D02*
X112776095Y-127722380D01*
X112776095Y-128198571D02*
X113347523Y-128198571D01*
X113347523Y-128722380D02*
X113347523Y-127722380D01*
X114252285Y-128055714D02*
X114252285Y-128722380D01*
X114014190Y-127674761D02*
X113776095Y-128389047D01*
X114395142Y-128389047D01*
X192443095Y-49141380D02*
X193014523Y-49141380D01*
X192728809Y-50141380D02*
X192728809Y-49141380D01*
X193347857Y-50141380D02*
X193347857Y-49141380D01*
X193728809Y-49141380D01*
X193824047Y-49189000D01*
X193871666Y-49236619D01*
X193919285Y-49331857D01*
X193919285Y-49474714D01*
X193871666Y-49569952D01*
X193824047Y-49617571D01*
X193728809Y-49665190D01*
X193347857Y-49665190D01*
X194824047Y-49141380D02*
X194347857Y-49141380D01*
X194300238Y-49617571D01*
X194347857Y-49569952D01*
X194443095Y-49522333D01*
X194681190Y-49522333D01*
X194776428Y-49569952D01*
X194824047Y-49617571D01*
X194871666Y-49712809D01*
X194871666Y-49950904D01*
X194824047Y-50046142D01*
X194776428Y-50093761D01*
X194681190Y-50141380D01*
X194443095Y-50141380D01*
X194347857Y-50093761D01*
X194300238Y-50046142D01*
X183330904Y-113022380D02*
X183902333Y-113022380D01*
X183616619Y-114022380D02*
X183616619Y-113022380D01*
X184235666Y-114022380D02*
X184235666Y-113022380D01*
X184616619Y-113022380D01*
X184711857Y-113070000D01*
X184759476Y-113117619D01*
X184807095Y-113212857D01*
X184807095Y-113355714D01*
X184759476Y-113450952D01*
X184711857Y-113498571D01*
X184616619Y-113546190D01*
X184235666Y-113546190D01*
X185759476Y-114022380D02*
X185188047Y-114022380D01*
X185473761Y-114022380D02*
X185473761Y-113022380D01*
X185378523Y-113165238D01*
X185283285Y-113260476D01*
X185188047Y-113308095D01*
X186378523Y-113022380D02*
X186473761Y-113022380D01*
X186569000Y-113070000D01*
X186616619Y-113117619D01*
X186664238Y-113212857D01*
X186711857Y-113403333D01*
X186711857Y-113641428D01*
X186664238Y-113831904D01*
X186616619Y-113927142D01*
X186569000Y-113974761D01*
X186473761Y-114022380D01*
X186378523Y-114022380D01*
X186283285Y-113974761D01*
X186235666Y-113927142D01*
X186188047Y-113831904D01*
X186140428Y-113641428D01*
X186140428Y-113403333D01*
X186188047Y-113212857D01*
X186235666Y-113117619D01*
X186283285Y-113070000D01*
X186378523Y-113022380D01*
X177823904Y-58751380D02*
X177823904Y-57751380D01*
X178062000Y-57751380D01*
X178204857Y-57799000D01*
X178300095Y-57894238D01*
X178347714Y-57989476D01*
X178395333Y-58179952D01*
X178395333Y-58322809D01*
X178347714Y-58513285D01*
X178300095Y-58608523D01*
X178204857Y-58703761D01*
X178062000Y-58751380D01*
X177823904Y-58751380D01*
X178871523Y-58751380D02*
X179062000Y-58751380D01*
X179157238Y-58703761D01*
X179204857Y-58656142D01*
X179300095Y-58513285D01*
X179347714Y-58322809D01*
X179347714Y-57941857D01*
X179300095Y-57846619D01*
X179252476Y-57799000D01*
X179157238Y-57751380D01*
X178966761Y-57751380D01*
X178871523Y-57799000D01*
X178823904Y-57846619D01*
X178776285Y-57941857D01*
X178776285Y-58179952D01*
X178823904Y-58275190D01*
X178871523Y-58322809D01*
X178966761Y-58370428D01*
X179157238Y-58370428D01*
X179252476Y-58322809D01*
X179300095Y-58275190D01*
X179347714Y-58179952D01*
X116101904Y-71832380D02*
X116101904Y-70832380D01*
X116340000Y-70832380D01*
X116482857Y-70880000D01*
X116578095Y-70975238D01*
X116625714Y-71070476D01*
X116673333Y-71260952D01*
X116673333Y-71403809D01*
X116625714Y-71594285D01*
X116578095Y-71689523D01*
X116482857Y-71784761D01*
X116340000Y-71832380D01*
X116101904Y-71832380D01*
X117625714Y-71832380D02*
X117054285Y-71832380D01*
X117340000Y-71832380D02*
X117340000Y-70832380D01*
X117244761Y-70975238D01*
X117149523Y-71070476D01*
X117054285Y-71118095D01*
X132270666Y-43584761D02*
X132413523Y-43632380D01*
X132651619Y-43632380D01*
X132746857Y-43584761D01*
X132794476Y-43537142D01*
X132842095Y-43441904D01*
X132842095Y-43346666D01*
X132794476Y-43251428D01*
X132746857Y-43203809D01*
X132651619Y-43156190D01*
X132461142Y-43108571D01*
X132365904Y-43060952D01*
X132318285Y-43013333D01*
X132270666Y-42918095D01*
X132270666Y-42822857D01*
X132318285Y-42727619D01*
X132365904Y-42680000D01*
X132461142Y-42632380D01*
X132699238Y-42632380D01*
X132842095Y-42680000D01*
X133175428Y-42632380D02*
X133413523Y-43632380D01*
X133604000Y-42918095D01*
X133794476Y-43632380D01*
X134032571Y-42632380D01*
X134937333Y-43632380D02*
X134365904Y-43632380D01*
X134651619Y-43632380D02*
X134651619Y-42632380D01*
X134556380Y-42775238D01*
X134461142Y-42870476D01*
X134365904Y-42918095D01*
X168244666Y-83912380D02*
X168244666Y-84626666D01*
X168197047Y-84769523D01*
X168101809Y-84864761D01*
X167958952Y-84912380D01*
X167863714Y-84912380D01*
X168625619Y-83912380D02*
X169292285Y-83912380D01*
X168863714Y-84912380D01*
X168044904Y-87621380D02*
X168044904Y-86621380D01*
X168283000Y-86621380D01*
X168425857Y-86669000D01*
X168521095Y-86764238D01*
X168568714Y-86859476D01*
X168616333Y-87049952D01*
X168616333Y-87192809D01*
X168568714Y-87383285D01*
X168521095Y-87478523D01*
X168425857Y-87573761D01*
X168283000Y-87621380D01*
X168044904Y-87621380D01*
X168949666Y-86621380D02*
X169616333Y-86621380D01*
X169187761Y-87621380D01*
X107434142Y-77033380D02*
X107100809Y-76557190D01*
X106862714Y-77033380D02*
X106862714Y-76033380D01*
X107243666Y-76033380D01*
X107338904Y-76081000D01*
X107386523Y-76128619D01*
X107434142Y-76223857D01*
X107434142Y-76366714D01*
X107386523Y-76461952D01*
X107338904Y-76509571D01*
X107243666Y-76557190D01*
X106862714Y-76557190D01*
X108386523Y-77033380D02*
X107815095Y-77033380D01*
X108100809Y-77033380D02*
X108100809Y-76033380D01*
X108005571Y-76176238D01*
X107910333Y-76271476D01*
X107815095Y-76319095D01*
X109291285Y-76033380D02*
X108815095Y-76033380D01*
X108767476Y-76509571D01*
X108815095Y-76461952D01*
X108910333Y-76414333D01*
X109148428Y-76414333D01*
X109243666Y-76461952D01*
X109291285Y-76509571D01*
X109338904Y-76604809D01*
X109338904Y-76842904D01*
X109291285Y-76938142D01*
X109243666Y-76985761D01*
X109148428Y-77033380D01*
X108910333Y-77033380D01*
X108815095Y-76985761D01*
X108767476Y-76938142D01*
X184315095Y-84320380D02*
X184886523Y-84320380D01*
X184600809Y-85320380D02*
X184600809Y-84320380D01*
X185219857Y-85320380D02*
X185219857Y-84320380D01*
X185600809Y-84320380D01*
X185696047Y-84368000D01*
X185743666Y-84415619D01*
X185791285Y-84510857D01*
X185791285Y-84653714D01*
X185743666Y-84748952D01*
X185696047Y-84796571D01*
X185600809Y-84844190D01*
X185219857Y-84844190D01*
X186648428Y-84653714D02*
X186648428Y-85320380D01*
X186410333Y-84272761D02*
X186172238Y-84987047D01*
X186791285Y-84987047D01*
X192532095Y-46426380D02*
X192532095Y-45426380D01*
X192532095Y-45902571D02*
X193103523Y-45902571D01*
X193103523Y-46426380D02*
X193103523Y-45426380D01*
X193532095Y-45521619D02*
X193579714Y-45474000D01*
X193674952Y-45426380D01*
X193913047Y-45426380D01*
X194008285Y-45474000D01*
X194055904Y-45521619D01*
X194103523Y-45616857D01*
X194103523Y-45712095D01*
X194055904Y-45854952D01*
X193484476Y-46426380D01*
X194103523Y-46426380D01*
X185666142Y-63831380D02*
X185332809Y-63355190D01*
X185094714Y-63831380D02*
X185094714Y-62831380D01*
X185475666Y-62831380D01*
X185570904Y-62879000D01*
X185618523Y-62926619D01*
X185666142Y-63021857D01*
X185666142Y-63164714D01*
X185618523Y-63259952D01*
X185570904Y-63307571D01*
X185475666Y-63355190D01*
X185094714Y-63355190D01*
X186618523Y-63831380D02*
X186047095Y-63831380D01*
X186332809Y-63831380D02*
X186332809Y-62831380D01*
X186237571Y-62974238D01*
X186142333Y-63069476D01*
X186047095Y-63117095D01*
X186951857Y-62831380D02*
X187570904Y-62831380D01*
X187237571Y-63212333D01*
X187380428Y-63212333D01*
X187475666Y-63259952D01*
X187523285Y-63307571D01*
X187570904Y-63402809D01*
X187570904Y-63640904D01*
X187523285Y-63736142D01*
X187475666Y-63783761D01*
X187380428Y-63831380D01*
X187094714Y-63831380D01*
X186999476Y-63783761D01*
X186951857Y-63736142D01*
X154519333Y-102947380D02*
X154186000Y-102471190D01*
X153947904Y-102947380D02*
X153947904Y-101947380D01*
X154328857Y-101947380D01*
X154424095Y-101995000D01*
X154471714Y-102042619D01*
X154519333Y-102137857D01*
X154519333Y-102280714D01*
X154471714Y-102375952D01*
X154424095Y-102423571D01*
X154328857Y-102471190D01*
X153947904Y-102471190D01*
X155471714Y-102947380D02*
X154900285Y-102947380D01*
X155186000Y-102947380D02*
X155186000Y-101947380D01*
X155090761Y-102090238D01*
X154995523Y-102185476D01*
X154900285Y-102233095D01*
X176363333Y-47702380D02*
X176030000Y-47226190D01*
X175791904Y-47702380D02*
X175791904Y-46702380D01*
X176172857Y-46702380D01*
X176268095Y-46750000D01*
X176315714Y-46797619D01*
X176363333Y-46892857D01*
X176363333Y-47035714D01*
X176315714Y-47130952D01*
X176268095Y-47178571D01*
X176172857Y-47226190D01*
X175791904Y-47226190D01*
X176696666Y-46702380D02*
X177363333Y-46702380D01*
X176934761Y-47702380D01*
X154394380Y-48339333D02*
X155108666Y-48339333D01*
X155251523Y-48386952D01*
X155346761Y-48482190D01*
X155394380Y-48625047D01*
X155394380Y-48720285D01*
X154822952Y-47720285D02*
X154775333Y-47815523D01*
X154727714Y-47863142D01*
X154632476Y-47910761D01*
X154584857Y-47910761D01*
X154489619Y-47863142D01*
X154442000Y-47815523D01*
X154394380Y-47720285D01*
X154394380Y-47529809D01*
X154442000Y-47434571D01*
X154489619Y-47386952D01*
X154584857Y-47339333D01*
X154632476Y-47339333D01*
X154727714Y-47386952D01*
X154775333Y-47434571D01*
X154822952Y-47529809D01*
X154822952Y-47720285D01*
X154870571Y-47815523D01*
X154918190Y-47863142D01*
X155013428Y-47910761D01*
X155203904Y-47910761D01*
X155299142Y-47863142D01*
X155346761Y-47815523D01*
X155394380Y-47720285D01*
X155394380Y-47529809D01*
X155346761Y-47434571D01*
X155299142Y-47386952D01*
X155203904Y-47339333D01*
X155013428Y-47339333D01*
X154918190Y-47386952D01*
X154870571Y-47434571D01*
X154822952Y-47529809D01*
X140708142Y-52268380D02*
X140374809Y-51792190D01*
X140136714Y-52268380D02*
X140136714Y-51268380D01*
X140517666Y-51268380D01*
X140612904Y-51316000D01*
X140660523Y-51363619D01*
X140708142Y-51458857D01*
X140708142Y-51601714D01*
X140660523Y-51696952D01*
X140612904Y-51744571D01*
X140517666Y-51792190D01*
X140136714Y-51792190D01*
X141660523Y-52268380D02*
X141089095Y-52268380D01*
X141374809Y-52268380D02*
X141374809Y-51268380D01*
X141279571Y-51411238D01*
X141184333Y-51506476D01*
X141089095Y-51554095D01*
X141993857Y-51268380D02*
X142660523Y-51268380D01*
X142231952Y-52268380D01*
X134199333Y-72987142D02*
X134151714Y-73034761D01*
X134008857Y-73082380D01*
X133913619Y-73082380D01*
X133770761Y-73034761D01*
X133675523Y-72939523D01*
X133627904Y-72844285D01*
X133580285Y-72653809D01*
X133580285Y-72510952D01*
X133627904Y-72320476D01*
X133675523Y-72225238D01*
X133770761Y-72130000D01*
X133913619Y-72082380D01*
X134008857Y-72082380D01*
X134151714Y-72130000D01*
X134199333Y-72177619D01*
X135104095Y-72082380D02*
X134627904Y-72082380D01*
X134580285Y-72558571D01*
X134627904Y-72510952D01*
X134723142Y-72463333D01*
X134961238Y-72463333D01*
X135056476Y-72510952D01*
X135104095Y-72558571D01*
X135151714Y-72653809D01*
X135151714Y-72891904D01*
X135104095Y-72987142D01*
X135056476Y-73034761D01*
X134961238Y-73082380D01*
X134723142Y-73082380D01*
X134627904Y-73034761D01*
X134580285Y-72987142D01*
X132675333Y-56759142D02*
X132627714Y-56806761D01*
X132484857Y-56854380D01*
X132389619Y-56854380D01*
X132246761Y-56806761D01*
X132151523Y-56711523D01*
X132103904Y-56616285D01*
X132056285Y-56425809D01*
X132056285Y-56282952D01*
X132103904Y-56092476D01*
X132151523Y-55997238D01*
X132246761Y-55902000D01*
X132389619Y-55854380D01*
X132484857Y-55854380D01*
X132627714Y-55902000D01*
X132675333Y-55949619D01*
X133532476Y-55854380D02*
X133342000Y-55854380D01*
X133246761Y-55902000D01*
X133199142Y-55949619D01*
X133103904Y-56092476D01*
X133056285Y-56282952D01*
X133056285Y-56663904D01*
X133103904Y-56759142D01*
X133151523Y-56806761D01*
X133246761Y-56854380D01*
X133437238Y-56854380D01*
X133532476Y-56806761D01*
X133580095Y-56759142D01*
X133627714Y-56663904D01*
X133627714Y-56425809D01*
X133580095Y-56330571D01*
X133532476Y-56282952D01*
X133437238Y-56235333D01*
X133246761Y-56235333D01*
X133151523Y-56282952D01*
X133103904Y-56330571D01*
X133056285Y-56425809D01*
X108037333Y-113996380D02*
X107704000Y-113520190D01*
X107465904Y-113996380D02*
X107465904Y-112996380D01*
X107846857Y-112996380D01*
X107942095Y-113044000D01*
X107989714Y-113091619D01*
X108037333Y-113186857D01*
X108037333Y-113329714D01*
X107989714Y-113424952D01*
X107942095Y-113472571D01*
X107846857Y-113520190D01*
X107465904Y-113520190D01*
X108894476Y-113329714D02*
X108894476Y-113996380D01*
X108656380Y-112948761D02*
X108418285Y-113663047D01*
X109037333Y-113663047D01*
X185539142Y-58751380D02*
X185205809Y-58275190D01*
X184967714Y-58751380D02*
X184967714Y-57751380D01*
X185348666Y-57751380D01*
X185443904Y-57799000D01*
X185491523Y-57846619D01*
X185539142Y-57941857D01*
X185539142Y-58084714D01*
X185491523Y-58179952D01*
X185443904Y-58227571D01*
X185348666Y-58275190D01*
X184967714Y-58275190D01*
X186491523Y-58751380D02*
X185920095Y-58751380D01*
X186205809Y-58751380D02*
X186205809Y-57751380D01*
X186110571Y-57894238D01*
X186015333Y-57989476D01*
X185920095Y-58037095D01*
X186872476Y-57846619D02*
X186920095Y-57799000D01*
X187015333Y-57751380D01*
X187253428Y-57751380D01*
X187348666Y-57799000D01*
X187396285Y-57846619D01*
X187443904Y-57941857D01*
X187443904Y-58037095D01*
X187396285Y-58179952D01*
X186824857Y-58751380D01*
X187443904Y-58751380D01*
X123912333Y-52274380D02*
X123579000Y-51798190D01*
X123340904Y-52274380D02*
X123340904Y-51274380D01*
X123721857Y-51274380D01*
X123817095Y-51322000D01*
X123864714Y-51369619D01*
X123912333Y-51464857D01*
X123912333Y-51607714D01*
X123864714Y-51702952D01*
X123817095Y-51750571D01*
X123721857Y-51798190D01*
X123340904Y-51798190D01*
X124245666Y-51274380D02*
X124864714Y-51274380D01*
X124531380Y-51655333D01*
X124674238Y-51655333D01*
X124769476Y-51702952D01*
X124817095Y-51750571D01*
X124864714Y-51845809D01*
X124864714Y-52083904D01*
X124817095Y-52179142D01*
X124769476Y-52226761D01*
X124674238Y-52274380D01*
X124388523Y-52274380D01*
X124293285Y-52226761D01*
X124245666Y-52179142D01*
X114866095Y-108196380D02*
X115437523Y-108196380D01*
X115151809Y-109196380D02*
X115151809Y-108196380D01*
X115770857Y-109196380D02*
X115770857Y-108196380D01*
X116151809Y-108196380D01*
X116247047Y-108244000D01*
X116294666Y-108291619D01*
X116342285Y-108386857D01*
X116342285Y-108529714D01*
X116294666Y-108624952D01*
X116247047Y-108672571D01*
X116151809Y-108720190D01*
X115770857Y-108720190D01*
X116675619Y-108196380D02*
X117294666Y-108196380D01*
X116961333Y-108577333D01*
X117104190Y-108577333D01*
X117199428Y-108624952D01*
X117247047Y-108672571D01*
X117294666Y-108767809D01*
X117294666Y-109005904D01*
X117247047Y-109101142D01*
X117199428Y-109148761D01*
X117104190Y-109196380D01*
X116818476Y-109196380D01*
X116723238Y-109148761D01*
X116675619Y-109101142D01*
X113734904Y-119372380D02*
X114306333Y-119372380D01*
X114020619Y-120372380D02*
X114020619Y-119372380D01*
X114639666Y-120372380D02*
X114639666Y-119372380D01*
X115020619Y-119372380D01*
X115115857Y-119420000D01*
X115163476Y-119467619D01*
X115211095Y-119562857D01*
X115211095Y-119705714D01*
X115163476Y-119800952D01*
X115115857Y-119848571D01*
X115020619Y-119896190D01*
X114639666Y-119896190D01*
X116163476Y-120372380D02*
X115592047Y-120372380D01*
X115877761Y-120372380D02*
X115877761Y-119372380D01*
X115782523Y-119515238D01*
X115687285Y-119610476D01*
X115592047Y-119658095D01*
X117115857Y-120372380D02*
X116544428Y-120372380D01*
X116830142Y-120372380D02*
X116830142Y-119372380D01*
X116734904Y-119515238D01*
X116639666Y-119610476D01*
X116544428Y-119658095D01*
X107529333Y-123547142D02*
X107481714Y-123594761D01*
X107338857Y-123642380D01*
X107243619Y-123642380D01*
X107100761Y-123594761D01*
X107005523Y-123499523D01*
X106957904Y-123404285D01*
X106910285Y-123213809D01*
X106910285Y-123070952D01*
X106957904Y-122880476D01*
X107005523Y-122785238D01*
X107100761Y-122690000D01*
X107243619Y-122642380D01*
X107338857Y-122642380D01*
X107481714Y-122690000D01*
X107529333Y-122737619D01*
X107862666Y-122642380D02*
X108529333Y-122642380D01*
X108100761Y-123642380D01*
X176619142Y-116752666D02*
X176666761Y-116800285D01*
X176714380Y-116943142D01*
X176714380Y-117038380D01*
X176666761Y-117181238D01*
X176571523Y-117276476D01*
X176476285Y-117324095D01*
X176285809Y-117371714D01*
X176142952Y-117371714D01*
X175952476Y-117324095D01*
X175857238Y-117276476D01*
X175762000Y-117181238D01*
X175714380Y-117038380D01*
X175714380Y-116943142D01*
X175762000Y-116800285D01*
X175809619Y-116752666D01*
X176142952Y-116181238D02*
X176095333Y-116276476D01*
X176047714Y-116324095D01*
X175952476Y-116371714D01*
X175904857Y-116371714D01*
X175809619Y-116324095D01*
X175762000Y-116276476D01*
X175714380Y-116181238D01*
X175714380Y-115990761D01*
X175762000Y-115895523D01*
X175809619Y-115847904D01*
X175904857Y-115800285D01*
X175952476Y-115800285D01*
X176047714Y-115847904D01*
X176095333Y-115895523D01*
X176142952Y-115990761D01*
X176142952Y-116181238D01*
X176190571Y-116276476D01*
X176238190Y-116324095D01*
X176333428Y-116371714D01*
X176523904Y-116371714D01*
X176619142Y-116324095D01*
X176666761Y-116276476D01*
X176714380Y-116181238D01*
X176714380Y-115990761D01*
X176666761Y-115895523D01*
X176619142Y-115847904D01*
X176523904Y-115800285D01*
X176333428Y-115800285D01*
X176238190Y-115847904D01*
X176190571Y-115895523D01*
X176142952Y-115990761D01*
X111299666Y-99230380D02*
X111299666Y-99944666D01*
X111252047Y-100087523D01*
X111156809Y-100182761D01*
X111013952Y-100230380D01*
X110918714Y-100230380D01*
X112204428Y-99230380D02*
X112013952Y-99230380D01*
X111918714Y-99278000D01*
X111871095Y-99325619D01*
X111775857Y-99468476D01*
X111728238Y-99658952D01*
X111728238Y-100039904D01*
X111775857Y-100135142D01*
X111823476Y-100182761D01*
X111918714Y-100230380D01*
X112109190Y-100230380D01*
X112204428Y-100182761D01*
X112252047Y-100135142D01*
X112299666Y-100039904D01*
X112299666Y-99801809D01*
X112252047Y-99706571D01*
X112204428Y-99658952D01*
X112109190Y-99611333D01*
X111918714Y-99611333D01*
X111823476Y-99658952D01*
X111775857Y-99706571D01*
X111728238Y-99801809D01*
X177474714Y-63704380D02*
X177474714Y-62704380D01*
X177712809Y-62704380D01*
X177855666Y-62752000D01*
X177950904Y-62847238D01*
X177998523Y-62942476D01*
X178046142Y-63132952D01*
X178046142Y-63275809D01*
X177998523Y-63466285D01*
X177950904Y-63561523D01*
X177855666Y-63656761D01*
X177712809Y-63704380D01*
X177474714Y-63704380D01*
X178998523Y-63704380D02*
X178427095Y-63704380D01*
X178712809Y-63704380D02*
X178712809Y-62704380D01*
X178617571Y-62847238D01*
X178522333Y-62942476D01*
X178427095Y-62990095D01*
X179617571Y-62704380D02*
X179712809Y-62704380D01*
X179808047Y-62752000D01*
X179855666Y-62799619D01*
X179903285Y-62894857D01*
X179950904Y-63085333D01*
X179950904Y-63323428D01*
X179903285Y-63513904D01*
X179855666Y-63609142D01*
X179808047Y-63656761D01*
X179712809Y-63704380D01*
X179617571Y-63704380D01*
X179522333Y-63656761D01*
X179474714Y-63609142D01*
X179427095Y-63513904D01*
X179379476Y-63323428D01*
X179379476Y-63085333D01*
X179427095Y-62894857D01*
X179474714Y-62799619D01*
X179522333Y-62752000D01*
X179617571Y-62704380D01*
X112522095Y-46426380D02*
X112522095Y-45426380D01*
X112522095Y-45902571D02*
X113093523Y-45902571D01*
X113093523Y-46426380D02*
X113093523Y-45426380D01*
X114093523Y-46426380D02*
X113522095Y-46426380D01*
X113807809Y-46426380D02*
X113807809Y-45426380D01*
X113712571Y-45569238D01*
X113617333Y-45664476D01*
X113522095Y-45712095D01*
X111172666Y-91737380D02*
X111172666Y-92451666D01*
X111125047Y-92594523D01*
X111029809Y-92689761D01*
X110886952Y-92737380D01*
X110791714Y-92737380D01*
X112125047Y-91737380D02*
X111648857Y-91737380D01*
X111601238Y-92213571D01*
X111648857Y-92165952D01*
X111744095Y-92118333D01*
X111982190Y-92118333D01*
X112077428Y-92165952D01*
X112125047Y-92213571D01*
X112172666Y-92308809D01*
X112172666Y-92546904D01*
X112125047Y-92642142D01*
X112077428Y-92689761D01*
X111982190Y-92737380D01*
X111744095Y-92737380D01*
X111648857Y-92689761D01*
X111601238Y-92642142D01*
X167549904Y-42736380D02*
X167549904Y-41736380D01*
X167788000Y-41736380D01*
X167930857Y-41784000D01*
X168026095Y-41879238D01*
X168073714Y-41974476D01*
X168121333Y-42164952D01*
X168121333Y-42307809D01*
X168073714Y-42498285D01*
X168026095Y-42593523D01*
X167930857Y-42688761D01*
X167788000Y-42736380D01*
X167549904Y-42736380D01*
X168454666Y-41736380D02*
X169073714Y-41736380D01*
X168740380Y-42117333D01*
X168883238Y-42117333D01*
X168978476Y-42164952D01*
X169026095Y-42212571D01*
X169073714Y-42307809D01*
X169073714Y-42545904D01*
X169026095Y-42641142D01*
X168978476Y-42688761D01*
X168883238Y-42736380D01*
X168597523Y-42736380D01*
X168502285Y-42688761D01*
X168454666Y-42641142D01*
X116101904Y-76912380D02*
X116101904Y-75912380D01*
X116340000Y-75912380D01*
X116482857Y-75960000D01*
X116578095Y-76055238D01*
X116625714Y-76150476D01*
X116673333Y-76340952D01*
X116673333Y-76483809D01*
X116625714Y-76674285D01*
X116578095Y-76769523D01*
X116482857Y-76864761D01*
X116340000Y-76912380D01*
X116101904Y-76912380D01*
X117244761Y-76340952D02*
X117149523Y-76293333D01*
X117101904Y-76245714D01*
X117054285Y-76150476D01*
X117054285Y-76102857D01*
X117101904Y-76007619D01*
X117149523Y-75960000D01*
X117244761Y-75912380D01*
X117435238Y-75912380D01*
X117530476Y-75960000D01*
X117578095Y-76007619D01*
X117625714Y-76102857D01*
X117625714Y-76150476D01*
X117578095Y-76245714D01*
X117530476Y-76293333D01*
X117435238Y-76340952D01*
X117244761Y-76340952D01*
X117149523Y-76388571D01*
X117101904Y-76436190D01*
X117054285Y-76531428D01*
X117054285Y-76721904D01*
X117101904Y-76817142D01*
X117149523Y-76864761D01*
X117244761Y-76912380D01*
X117435238Y-76912380D01*
X117530476Y-76864761D01*
X117578095Y-76817142D01*
X117625714Y-76721904D01*
X117625714Y-76531428D01*
X117578095Y-76436190D01*
X117530476Y-76388571D01*
X117435238Y-76340952D01*
D12*
X113568069Y-54990000D02*
X113170998Y-54990000D01*
X113568069Y-64390000D02*
X113170998Y-64390000D01*
X113568069Y-56770000D02*
X113170998Y-56770000D01*
X113568069Y-61850000D02*
X113170998Y-61850000D01*
X113568069Y-65150000D02*
X113170998Y-65150000D01*
X113500998Y-67690000D02*
X113170998Y-67690000D01*
X113170998Y-68640000D02*
X113170998Y-53280000D01*
X113568069Y-60070000D02*
X113170998Y-60070000D01*
X113568069Y-62610000D02*
X113170998Y-62610000D01*
X113500998Y-66930000D02*
X113170998Y-66930000D01*
X113568069Y-54230000D02*
X113170998Y-54230000D01*
X115880998Y-68580000D02*
X114610998Y-68580000D01*
X113568069Y-57530000D02*
X113170998Y-57530000D01*
X115880998Y-67310000D02*
X115880998Y-68580000D01*
X113568069Y-59310000D02*
X113170998Y-59310000D01*
X119827002Y-117500997D02*
X121727001Y-117500997D01*
X118027000Y-114401001D02*
X121727001Y-114400998D01*
X139452350Y-116319300D02*
X139452350Y-112153700D01*
X134296150Y-112153700D02*
X134296150Y-116319300D01*
X169887900Y-114900050D02*
X171742100Y-114900050D01*
X171742100Y-113045850D02*
X169887900Y-113045850D01*
X168960900Y-113572950D02*
G75*
G03*
X168960900Y-113572950I-101600J0D01*
G01*
X153391108Y-69024500D02*
X153948892Y-69024500D01*
X136168892Y-61277500D02*
X135611108Y-61277500D01*
X145771108Y-69024500D02*
X146328892Y-69024500D01*
X128548892Y-61277500D02*
X128143000Y-61277500D01*
X135611108Y-69024500D02*
X136168892Y-69024500D01*
X143231108Y-69024500D02*
X143788892Y-69024500D01*
X150851108Y-69024500D02*
X151408892Y-69024500D01*
X151408892Y-61277500D02*
X150851108Y-61277500D01*
X163551108Y-69024500D02*
X163957000Y-69024500D01*
X156488892Y-61277500D02*
X155931108Y-61277500D01*
X148311108Y-69024500D02*
X148868892Y-69024500D01*
X161566860Y-61277500D02*
X161011108Y-61277500D01*
X158471108Y-69024500D02*
X159028892Y-69024500D01*
X141248892Y-61277500D02*
X140691108Y-61277500D01*
X131088892Y-61277500D02*
X130531108Y-61277500D01*
X153948892Y-61277500D02*
X153391108Y-61277500D01*
X128143000Y-69024500D02*
X128548892Y-69024500D01*
X133628892Y-61277500D02*
X133071108Y-61277500D01*
X163957000Y-61277500D02*
X163553140Y-61277500D01*
X138151108Y-69024500D02*
X138708892Y-69024500D01*
X163957000Y-69024500D02*
X163957000Y-61277500D01*
X159028892Y-61277500D02*
X158471108Y-61277500D01*
X130531108Y-69024500D02*
X131088892Y-69024500D01*
X138708892Y-61277500D02*
X138151108Y-61277500D01*
X140691108Y-69024500D02*
X141248892Y-69024500D01*
X146328892Y-61277500D02*
X145771108Y-61277500D01*
X148868892Y-61277500D02*
X148311108Y-61277500D01*
X161011108Y-69024500D02*
X161568892Y-69024500D01*
X143788892Y-61277500D02*
X143231108Y-61277500D01*
X133071108Y-69024500D02*
X133628892Y-69024500D01*
X128143000Y-61277500D02*
X128143000Y-69024500D01*
X155931108Y-69024500D02*
X156488892Y-69024500D01*
X145198000Y-113080748D02*
X145198000Y-114503252D01*
X147918000Y-113080748D02*
X147918000Y-114503252D01*
X151930100Y-111652050D02*
X151930100Y-111979710D01*
X156679900Y-114519710D02*
X156679900Y-113534190D01*
X156679900Y-111652050D02*
X151930100Y-111652050D01*
X151930100Y-116401850D02*
X156679900Y-116401850D01*
X156679900Y-111979710D02*
X156679900Y-111652050D01*
X156679900Y-116401850D02*
X156679900Y-116074190D01*
X151930100Y-113534190D02*
X151930100Y-114519710D01*
X151930100Y-116074190D02*
X151930100Y-116401850D01*
X158253700Y-115296950D02*
G75*
G03*
X158253700Y-115296950I-76200J0D01*
G01*
D11*
X181850000Y-53740000D02*
X181850000Y-52940000D01*
X185950000Y-54240000D02*
X182350000Y-54240000D01*
X186450000Y-52940000D02*
X186450000Y-53740000D01*
X182350000Y-54240000D02*
X181850000Y-53740000D01*
X181850000Y-52940000D02*
X182350000Y-52440000D01*
X185950000Y-52440000D02*
X186450000Y-52940000D01*
X182350000Y-52440000D02*
X185950000Y-52440000D01*
X186450000Y-53740000D02*
X185950000Y-54240000D01*
D12*
X175142936Y-43204000D02*
X178197064Y-43204000D01*
X175142936Y-45924000D02*
X178197064Y-45924000D01*
X164661000Y-51242000D02*
X170521000Y-51242000D01*
X170521000Y-48072000D02*
X164661000Y-48072000D01*
X164661000Y-48072000D02*
X164661000Y-51242000D01*
X171526252Y-96938000D02*
X170103748Y-96938000D01*
X171526252Y-99658000D02*
X170103748Y-99658000D01*
X148386748Y-55589000D02*
X149809252Y-55589000D01*
X148386748Y-52869000D02*
X149809252Y-52869000D01*
X178765252Y-103796000D02*
X177342748Y-103796000D01*
X178765252Y-106516000D02*
X177342748Y-106516000D01*
X158055000Y-79950000D02*
X159385000Y-79950000D01*
X158055000Y-90230000D02*
X160715000Y-90230000D01*
X158055000Y-81280000D02*
X158055000Y-79950000D01*
X160715000Y-82550000D02*
X160715000Y-90230000D01*
X158055000Y-82550000D02*
X160715000Y-82550000D01*
X158055000Y-82550000D02*
X158055000Y-90230000D01*
X124717064Y-88556000D02*
X121662936Y-88556000D01*
X124717064Y-91276000D02*
X121662936Y-91276000D01*
X193996000Y-62484000D02*
X193996000Y-61154000D01*
X196596000Y-63754000D02*
X196596000Y-61154000D01*
X199196000Y-61154000D02*
X199196000Y-112074000D01*
X196596000Y-61154000D02*
X199196000Y-61154000D01*
X193996000Y-63754000D02*
X193996000Y-112074000D01*
X193996000Y-63754000D02*
X196596000Y-63754000D01*
X193996000Y-112074000D02*
X199196000Y-112074000D01*
X193996000Y-61154000D02*
X195326000Y-61154000D01*
X113277500Y-86675000D02*
X119137500Y-86675000D01*
X119137500Y-83505000D02*
X113277500Y-83505000D01*
X113277500Y-83505000D02*
X113277500Y-86675000D01*
D11*
X123410000Y-105772000D02*
X123910000Y-105272000D01*
X127510000Y-107072000D02*
X123910000Y-107072000D01*
X123910000Y-107072000D02*
X123410000Y-106572000D01*
X123910000Y-105272000D02*
X127510000Y-105272000D01*
X128010000Y-105772000D02*
X128010000Y-106572000D01*
X128010000Y-106572000D02*
X127510000Y-107072000D01*
X123410000Y-106572000D02*
X123410000Y-105772000D01*
X127510000Y-105272000D02*
X128010000Y-105772000D01*
D12*
X124336064Y-97880000D02*
X121281936Y-97880000D01*
X124336064Y-95160000D02*
X121281936Y-95160000D01*
D11*
X127621000Y-84601000D02*
X127621000Y-83801000D01*
X128121000Y-85101000D02*
X127621000Y-84601000D01*
X131721000Y-85101000D02*
X128121000Y-85101000D01*
X131721000Y-83301000D02*
X132221000Y-83801000D01*
X132221000Y-83801000D02*
X132221000Y-84601000D01*
X128121000Y-83301000D02*
X131721000Y-83301000D01*
X127621000Y-83801000D02*
X128121000Y-83301000D01*
X132221000Y-84601000D02*
X131721000Y-85101000D01*
D12*
X142815000Y-92770000D02*
X145475000Y-92770000D01*
X142815000Y-78740000D02*
X142815000Y-77410000D01*
X142815000Y-80010000D02*
X142815000Y-92770000D01*
X142815000Y-77410000D02*
X144145000Y-77410000D01*
X145475000Y-80010000D02*
X145475000Y-92770000D01*
X142815000Y-80010000D02*
X145475000Y-80010000D01*
X126060252Y-122518000D02*
X124637748Y-122518000D01*
X126060252Y-119798000D02*
X124637748Y-119798000D01*
D11*
X182739000Y-110344000D02*
X183239000Y-109844000D01*
X183239000Y-109844000D02*
X186839000Y-109844000D01*
X186839000Y-109844000D02*
X187339000Y-110344000D01*
X182739000Y-111144000D02*
X182739000Y-110344000D01*
X187339000Y-111144000D02*
X186839000Y-111644000D01*
X187339000Y-110344000D02*
X187339000Y-111144000D01*
X186839000Y-111644000D02*
X183239000Y-111644000D01*
X183239000Y-111644000D02*
X182739000Y-111144000D01*
D12*
X109477064Y-86270000D02*
X106422936Y-86270000D01*
X109477064Y-83550000D02*
X106422936Y-83550000D01*
X156467064Y-97319000D02*
X153412936Y-97319000D01*
X156467064Y-100039000D02*
X153412936Y-100039000D01*
X109604064Y-72300000D02*
X106549936Y-72300000D01*
X109604064Y-75020000D02*
X106549936Y-75020000D01*
D11*
X191875000Y-50789000D02*
X195475000Y-50789000D01*
X191375000Y-51289000D02*
X191875000Y-50789000D01*
X195475000Y-52589000D02*
X191875000Y-52589000D01*
X195475000Y-50789000D02*
X195975000Y-51289000D01*
X195975000Y-52089000D02*
X195475000Y-52589000D01*
X191375000Y-52089000D02*
X191375000Y-51289000D01*
X195975000Y-51289000D02*
X195975000Y-52089000D01*
X191875000Y-52589000D02*
X191375000Y-52089000D01*
X182739000Y-115170000D02*
X183239000Y-114670000D01*
X186839000Y-116470000D02*
X183239000Y-116470000D01*
X187339000Y-115970000D02*
X186839000Y-116470000D01*
X183239000Y-116470000D02*
X182739000Y-115970000D01*
X183239000Y-114670000D02*
X186839000Y-114670000D01*
X187339000Y-115170000D02*
X187339000Y-115970000D01*
X186839000Y-114670000D02*
X187339000Y-115170000D01*
X182739000Y-115970000D02*
X182739000Y-115170000D01*
D12*
X175202000Y-62164000D02*
X181062000Y-62164000D01*
X175202000Y-58994000D02*
X175202000Y-62164000D01*
X181062000Y-58994000D02*
X175202000Y-58994000D01*
X119340000Y-72075000D02*
X113480000Y-72075000D01*
X113480000Y-72075000D02*
X113480000Y-75245000D01*
X113480000Y-75245000D02*
X119340000Y-75245000D01*
X131407000Y-44577000D02*
X131407000Y-44277000D01*
X135547000Y-47117000D02*
X135547000Y-47417000D01*
X135547000Y-47417000D02*
X131407000Y-47417000D01*
X131407000Y-44277000D02*
X135547000Y-44277000D01*
X135547000Y-44277000D02*
X135547000Y-44577000D01*
X131407000Y-47417000D02*
X131407000Y-47117000D01*
X170113000Y-80396000D02*
X170113000Y-77796000D01*
X170113000Y-81666000D02*
X170113000Y-82996000D01*
X170113000Y-82996000D02*
X168783000Y-82996000D01*
X167453000Y-80396000D02*
X167453000Y-77796000D01*
X170113000Y-77796000D02*
X167453000Y-77796000D01*
X170113000Y-80396000D02*
X167453000Y-80396000D01*
X171933000Y-87854000D02*
X164773000Y-87854000D01*
X164773000Y-87854000D02*
X164773000Y-91724000D01*
X164773000Y-91724000D02*
X171933000Y-91724000D01*
X109604064Y-80227000D02*
X106549936Y-80227000D01*
X109604064Y-77507000D02*
X106549936Y-77507000D01*
D11*
X187347000Y-85968000D02*
X187847000Y-86468000D01*
X183247000Y-86468000D02*
X183747000Y-85968000D01*
X187847000Y-87268000D02*
X187347000Y-87768000D01*
X183747000Y-87768000D02*
X183247000Y-87268000D01*
X183247000Y-87268000D02*
X183247000Y-86468000D01*
X187347000Y-87768000D02*
X183747000Y-87768000D01*
X187847000Y-86468000D02*
X187847000Y-87268000D01*
X183747000Y-85968000D02*
X187347000Y-85968000D01*
D12*
X184781936Y-67019000D02*
X187836064Y-67019000D01*
X184781936Y-64299000D02*
X187836064Y-64299000D01*
X153158936Y-103415000D02*
X156213064Y-103415000D01*
X153158936Y-106135000D02*
X156213064Y-106135000D01*
X175002936Y-48170000D02*
X178057064Y-48170000D01*
X175002936Y-50890000D02*
X178057064Y-50890000D01*
X158202000Y-44896000D02*
X159352000Y-44896000D01*
X156232000Y-49946000D02*
X156232000Y-46066000D01*
X159352000Y-50066000D02*
X160342000Y-50066000D01*
X158202000Y-51116000D02*
X159352000Y-51116000D01*
X159352000Y-44896000D02*
X159352000Y-45946000D01*
X159352000Y-51116000D02*
X159352000Y-50066000D01*
X139696936Y-52869000D02*
X142751064Y-52869000D01*
X139696936Y-55589000D02*
X142751064Y-55589000D01*
X133654748Y-73570000D02*
X135077252Y-73570000D01*
X133654748Y-76290000D02*
X135077252Y-76290000D01*
X133553252Y-52742000D02*
X132130748Y-52742000D01*
X133553252Y-55462000D02*
X132130748Y-55462000D01*
X106676936Y-114464000D02*
X109731064Y-114464000D01*
X106676936Y-117184000D02*
X109731064Y-117184000D01*
X184654936Y-59219000D02*
X187709064Y-59219000D01*
X184654936Y-61939000D02*
X187709064Y-61939000D01*
X122551936Y-55462000D02*
X125606064Y-55462000D01*
X122551936Y-52742000D02*
X125606064Y-52742000D01*
D11*
X117898000Y-111644000D02*
X114298000Y-111644000D01*
X113798000Y-111144000D02*
X113798000Y-110344000D01*
X118398000Y-110344000D02*
X118398000Y-111144000D01*
X113798000Y-110344000D02*
X114298000Y-109844000D01*
X114298000Y-109844000D02*
X117898000Y-109844000D01*
X114298000Y-111644000D02*
X113798000Y-111144000D01*
X118398000Y-111144000D02*
X117898000Y-111644000D01*
X117898000Y-109844000D02*
X118398000Y-110344000D01*
X117243000Y-122820000D02*
X113643000Y-122820000D01*
X113643000Y-121020000D02*
X117243000Y-121020000D01*
X117243000Y-121020000D02*
X117743000Y-121520000D01*
X113643000Y-122820000D02*
X113143000Y-122320000D01*
X117743000Y-121520000D02*
X117743000Y-122320000D01*
X113143000Y-121520000D02*
X113643000Y-121020000D01*
X117743000Y-122320000D02*
X117243000Y-122820000D01*
X113143000Y-122320000D02*
X113143000Y-121520000D01*
D12*
X108534252Y-121629000D02*
X107111748Y-121629000D01*
X108534252Y-118909000D02*
X107111748Y-118909000D01*
X177202000Y-117297252D02*
X177202000Y-115874748D01*
X179922000Y-117297252D02*
X179922000Y-115874748D01*
X110303000Y-100778000D02*
X111633000Y-100778000D01*
X110303000Y-102108000D02*
X110303000Y-100778000D01*
X110303000Y-103378000D02*
X110303000Y-105978000D01*
X112963000Y-103378000D02*
X112963000Y-105978000D01*
X110303000Y-105978000D02*
X112963000Y-105978000D01*
X110303000Y-103378000D02*
X112963000Y-103378000D01*
X181189000Y-63947000D02*
X175329000Y-63947000D01*
X175329000Y-67117000D02*
X181189000Y-67117000D01*
X175329000Y-63947000D02*
X175329000Y-67117000D01*
X110176000Y-95885000D02*
X110176000Y-98485000D01*
X112836000Y-95885000D02*
X112836000Y-98485000D01*
X110176000Y-94615000D02*
X110176000Y-93285000D01*
X110176000Y-95885000D02*
X112836000Y-95885000D01*
X110176000Y-98485000D02*
X112836000Y-98485000D01*
X110176000Y-93285000D02*
X111506000Y-93285000D01*
X164928000Y-46149000D02*
X170788000Y-46149000D01*
X170788000Y-42979000D02*
X164928000Y-42979000D01*
X164928000Y-42979000D02*
X164928000Y-46149000D01*
X113480000Y-77155000D02*
X113480000Y-80325000D01*
X113480000Y-80325000D02*
X119340000Y-80325000D01*
X119340000Y-77155000D02*
X113480000Y-77155000D01*
M02*
