M48
; DRILL file {KiCad (6.0.1)} date Mon Mar 21 02:35:54 2022
; FORMAT={-:-/ absolute / inch / decimal}
; #@! TF.CreationDate,2022-03-21T02:35:54-06:00
; #@! TF.GenerationSoftware,Kicad,Pcbnew,(6.0.1)
; #@! TF.FileFunction,Plated,1,2,PTH
FMAT,2
INCH
; #@! TA.AperFunction,Plated,PTH,ViaDrill
T1C0.0150
; #@! TA.AperFunction,Plated,PTH,ComponentDrill
T2C0.0315
; #@! TA.AperFunction,Plated,PTH,ComponentDrill
T3C0.0320
; #@! TA.AperFunction,Plated,PTH,ComponentDrill
T4C0.0394
%
G90
G05
T1
X4.87Y-4.065
X4.93Y-3.9
X5.155Y-2.265
X5.285Y-3.185
X5.36Y-2.035
X5.36Y-4.025
X5.365Y-3.93
X5.425Y-2.565
X5.425Y-2.675
X5.435Y-4.18
X5.525Y-4.27
X5.585Y-3.975
X5.59Y-4.065
X5.6Y-4.27
X5.63Y-4.545
X5.715Y-4.675
X5.715Y-4.8
X5.75Y-4.235
X5.8Y-3.32
X5.81Y-4.0
X5.815Y-2.345
X5.825Y-2.415
X5.865Y-3.71
X5.9Y-4.33
X5.955Y-3.175
X5.99Y-2.26
X6.03Y-2.34
X6.065Y-3.735
X6.08Y-4.435
X6.11Y-3.015
X6.265Y-2.355
X6.44Y-4.645
X6.455Y-3.1
X6.48Y-4.445
X6.49Y-3.01
X6.605Y-2.855
X6.655Y-4.445
X6.675Y-2.54
X6.691Y-3.87
X6.73Y-2.495
X6.88Y-2.34
X7.025Y-2.795
X7.105Y-3.285
X7.205Y-3.295
X7.215Y-2.955
X7.285Y-3.29
X7.325Y-3.535
X7.405Y-2.845
X7.41Y-2.685
X7.41Y-2.905
X7.42Y-3.64
X7.465Y-3.165
X7.54Y-2.795
T2
X4.515Y-4.45
X4.615Y-4.45
X4.8992Y-4.18
X4.9992Y-4.18
X5.0208Y-3.68
X5.045Y-4.335
X5.1208Y-3.68
X5.145Y-4.335
X6.39Y-1.845
X6.49Y-1.845
X7.235Y-4.36
X7.235Y-4.55
X7.255Y-3.42
X7.335Y-4.36
X7.335Y-4.55
X7.35Y-2.11
X7.355Y-3.42
X7.45Y-2.11
T3
X5.265Y-2.47
X5.265Y-2.77
X5.365Y-2.47
X5.365Y-2.77
X5.465Y-2.47
X5.465Y-2.77
X5.565Y-2.47
X5.565Y-2.77
X5.665Y-2.47
X5.665Y-2.77
X5.765Y-2.47
X5.765Y-2.77
X5.865Y-2.47
X5.865Y-2.77
X5.965Y-2.47
X5.965Y-2.77
X6.065Y-2.47
X6.065Y-2.77
X6.165Y-2.47
X6.165Y-2.77
X6.265Y-2.47
X6.265Y-2.77
X6.365Y-2.47
X6.365Y-2.77
X6.465Y-2.47
X6.465Y-2.77
X6.565Y-2.47
X6.565Y-2.77
T4
X4.39Y-3.725
X4.39Y-3.825
X4.395Y-4.02
X4.395Y-4.12
X5.675Y-3.1
X5.675Y-3.2
X5.675Y-3.3
X5.675Y-3.4
X5.675Y-3.5
X5.675Y-3.6
X5.795Y-1.78
X5.895Y-1.78
X5.995Y-1.78
X6.095Y-1.78
X6.195Y-1.78
X6.275Y-3.2
X6.275Y-3.3
X6.275Y-3.4
X6.275Y-3.5
X6.645Y-3.1152
X6.645Y-3.2152
X7.675Y-2.48
X7.675Y-2.58
X7.675Y-2.68
X7.675Y-2.78
X7.675Y-2.88
X7.675Y-2.98
X7.675Y-3.08
X7.675Y-3.18
X7.675Y-3.28
X7.675Y-3.38
X7.675Y-3.48
X7.675Y-3.58
X7.675Y-3.68
X7.675Y-3.78
X7.675Y-3.88
X7.675Y-3.98
X7.675Y-4.08
X7.675Y-4.18
X7.675Y-4.28
X7.675Y-4.38
X7.775Y-2.48
X7.775Y-2.58
X7.775Y-2.68
X7.775Y-2.78
X7.775Y-2.88
X7.775Y-2.98
X7.775Y-3.08
X7.775Y-3.18
X7.775Y-3.28
X7.775Y-3.38
X7.775Y-3.48
X7.775Y-3.58
X7.775Y-3.68
X7.775Y-3.78
X7.775Y-3.88
X7.775Y-3.98
X7.775Y-4.08
X7.775Y-4.18
X7.775Y-4.28
X7.775Y-4.38
T0
M30
