M48
; DRILL file {KiCad (6.0.1)} date Mon Apr 25 06:16:52 2022
; FORMAT={-:-/ absolute / metric / decimal}
; #@! TF.CreationDate,2022-04-25T06:16:52-06:00
; #@! TF.GenerationSoftware,Kicad,Pcbnew,(6.0.1)
; #@! TF.FileFunction,Plated,1,2,PTH
FMAT,2
METRIC
; #@! TA.AperFunction,Plated,PTH,ViaDrill
T1C0.381
; #@! TA.AperFunction,Plated,PTH,ComponentDrill
T2C0.800
; #@! TA.AperFunction,Plated,PTH,ComponentDrill
T3C0.813
; #@! TA.AperFunction,Plated,PTH,ComponentDrill
T4C1.000
%
G90
G05
T1
X112.268Y-116.205
X115.697Y-116.205
X116.84Y-66.04
X118.11Y-63.5
X120.65Y-62.23
X120.904Y-118.237
X121.92Y-68.58
X123.698Y-103.251
X125.222Y-99.06
X125.73Y-62.23
X125.73Y-64.77
X127.508Y-93.853
X128.27Y-77.47
X128.27Y-110.744
X129.54Y-71.12
X129.54Y-78.74
X130.81Y-58.42
X133.477Y-86.36
X134.62Y-67.31
X134.62Y-78.74
X135.89Y-67.31
X135.89Y-107.95
X136.144Y-102.235
X136.271Y-99.822
X137.16Y-72.39
X137.16Y-83.185
X137.668Y-109.982
X138.049Y-106.172
X140.462Y-114.681
X140.97Y-72.39
X140.97Y-73.66
X141.859Y-100.965
X141.986Y-103.251
X142.24Y-59.69
X142.24Y-90.17
X143.002Y-115.443
X144.78Y-72.39
X145.161Y-118.745
X145.161Y-121.92
X146.05Y-57.15
X146.05Y-107.569
X146.177Y-102.489
X147.32Y-84.328
X147.32Y-86.36
X147.574Y-101.6
X148.59Y-81.026
X149.86Y-109.982
X153.67Y-72.39
X154.051Y-94.869
X154.432Y-112.649
X155.194Y-76.581
X156.21Y-92.71
X157.48Y-59.69
X157.48Y-66.04
X160.02Y-59.69
X161.29Y-55.88
X162.56Y-45.72
X163.576Y-117.983
X163.957Y-78.74
X164.592Y-112.903
X164.846Y-76.454
X166.37Y-55.88
X166.37Y-73.66
X166.624Y-103.251
X167.767Y-72.517
X168.91Y-66.04
X168.91Y-69.85
X169.037Y-112.903
X170.18Y-59.69
X170.18Y-73.66
X172.72Y-66.04
X180.34Y-76.2
X180.467Y-83.439
X183.007Y-83.693
X183.261Y-75.057
X185.039Y-83.566
X186.055Y-89.789
X188.214Y-68.199
X188.214Y-73.787
X188.468Y-92.456
X189.23Y-57.15
X189.611Y-80.391
X192.786Y-73.914
X193.548Y-68.072
T2
X114.173Y-121.92
X114.828Y-110.744
X116.713Y-121.92
X117.368Y-110.744
X124.44Y-106.172
X126.98Y-106.172
X128.651Y-84.201
X131.191Y-84.201
X182.88Y-53.34
X183.769Y-110.744
X183.769Y-115.57
X184.277Y-86.868
X185.42Y-53.34
X186.309Y-110.744
X186.309Y-115.57
X186.817Y-86.868
X192.405Y-51.689
X194.945Y-51.689
T3
X129.54Y-61.341
X129.54Y-68.961
X132.08Y-61.341
X132.08Y-68.961
X134.62Y-61.341
X134.62Y-68.961
X137.16Y-61.341
X137.16Y-68.961
X139.7Y-61.341
X139.7Y-68.961
X142.24Y-61.341
X142.24Y-68.961
X144.78Y-61.341
X144.78Y-68.961
X147.32Y-61.341
X147.32Y-68.961
X149.86Y-61.341
X149.86Y-68.961
X152.4Y-61.341
X152.4Y-68.961
X154.94Y-61.341
X154.94Y-68.961
X157.48Y-61.341
X157.48Y-68.961
X160.02Y-61.341
X160.02Y-68.961
X162.56Y-61.341
X162.56Y-68.961
T4
X111.506Y-94.615
X111.506Y-97.155
X111.633Y-102.108
X111.633Y-104.648
X114.611Y-54.61
X114.611Y-57.15
X114.611Y-59.69
X114.611Y-62.23
X114.611Y-64.77
X114.611Y-67.31
X144.145Y-78.74
X144.145Y-81.28
X144.145Y-83.82
X144.145Y-86.36
X144.145Y-88.9
X144.145Y-91.44
X159.385Y-81.28
X159.385Y-83.82
X159.385Y-86.36
X159.385Y-88.9
X168.783Y-79.126
X168.783Y-81.666
X195.326Y-62.484
X195.326Y-65.024
X195.326Y-67.564
X195.326Y-70.104
X195.326Y-72.644
X195.326Y-75.184
X195.326Y-77.724
X195.326Y-80.264
X195.326Y-82.804
X195.326Y-85.344
X195.326Y-87.884
X195.326Y-90.424
X195.326Y-92.964
X195.326Y-95.504
X195.326Y-98.044
X195.326Y-100.584
X195.326Y-103.124
X195.326Y-105.664
X195.326Y-108.204
X195.326Y-110.744
X197.866Y-62.484
X197.866Y-65.024
X197.866Y-67.564
X197.866Y-70.104
X197.866Y-72.644
X197.866Y-75.184
X197.866Y-77.724
X197.866Y-80.264
X197.866Y-82.804
X197.866Y-85.344
X197.866Y-87.884
X197.866Y-90.424
X197.866Y-92.964
X197.866Y-95.504
X197.866Y-98.044
X197.866Y-100.584
X197.866Y-103.124
X197.866Y-105.664
X197.866Y-108.204
X197.866Y-110.744
T0
M30
