%TF.GenerationSoftware,KiCad,Pcbnew,(6.0.1)*%
%TF.CreationDate,2022-04-25T06:12:33-06:00*%
%TF.ProjectId,ColoradoCUBE_Payload,436f6c6f-7261-4646-9f43-5542455f5061,rev?*%
%TF.SameCoordinates,Original*%
%TF.FileFunction,Soldermask,Bot*%
%TF.FilePolarity,Negative*%
%FSLAX46Y46*%
G04 Gerber Fmt 4.6, Leading zero omitted, Abs format (unit mm)*
G04 Created by KiCad (PCBNEW (6.0.1)) date 2022-04-25 06:12:33*
%MOMM*%
%LPD*%
G01*
G04 APERTURE LIST*
G04 Aperture macros list*
%AMRoundRect*
0 Rectangle with rounded corners*
0 $1 Rounding radius*
0 $2 $3 $4 $5 $6 $7 $8 $9 X,Y pos of 4 corners*
0 Add a 4 corners polygon primitive as box body*
4,1,4,$2,$3,$4,$5,$6,$7,$8,$9,$2,$3,0*
0 Add four circle primitives for the rounded corners*
1,1,$1+$1,$2,$3*
1,1,$1+$1,$4,$5*
1,1,$1+$1,$6,$7*
1,1,$1+$1,$8,$9*
0 Add four rect primitives between the rounded corners*
20,1,$1+$1,$2,$3,$4,$5,0*
20,1,$1+$1,$4,$5,$6,$7,0*
20,1,$1+$1,$6,$7,$8,$9,0*
20,1,$1+$1,$8,$9,$2,$3,0*%
G04 Aperture macros list end*
%ADD10RoundRect,0.050800X0.850000X0.850000X-0.850000X0.850000X-0.850000X-0.850000X0.850000X-0.850000X0*%
%ADD11O,1.801600X1.801600*%
%ADD12C,1.501600*%
%ADD13RoundRect,0.050800X-0.660400X0.660400X-0.660400X-0.660400X0.660400X-0.660400X0.660400X0.660400X0*%
%ADD14C,1.422400*%
%ADD15RoundRect,0.050800X-0.850000X-0.850000X0.850000X-0.850000X0.850000X0.850000X-0.850000X0.850000X0*%
%ADD16C,3.101600*%
G04 APERTURE END LIST*
D10*
X114610998Y-67310000D03*
D11*
X114610998Y-64770000D03*
X114610998Y-62230000D03*
X114610998Y-59690000D03*
X114610998Y-57150000D03*
X114610998Y-54610000D03*
D12*
X182880000Y-53340000D03*
X185420000Y-53340000D03*
D13*
X162560000Y-61341000D03*
D14*
X160020000Y-61341000D03*
X157480000Y-61341000D03*
X154940000Y-61341000D03*
X152400000Y-61341000D03*
X149860000Y-61341000D03*
X147320000Y-61341000D03*
X144780000Y-61341000D03*
X142240000Y-61341000D03*
X139700000Y-61341000D03*
X137160000Y-61341000D03*
X134620000Y-61341000D03*
X132080000Y-61341000D03*
X129540000Y-61341000D03*
X129540000Y-68961000D03*
X132080000Y-68961000D03*
X134620000Y-68961000D03*
X137160000Y-68961000D03*
X139700000Y-68961000D03*
X142240000Y-68961000D03*
X144780000Y-68961000D03*
X147320000Y-68961000D03*
X149860000Y-68961000D03*
X152400000Y-68961000D03*
X154940000Y-68961000D03*
X157480000Y-68961000D03*
X160020000Y-68961000D03*
X162560000Y-68961000D03*
D15*
X159385000Y-81280000D03*
D11*
X159385000Y-83820000D03*
X159385000Y-86360000D03*
X159385000Y-88900000D03*
D15*
X195326000Y-62484000D03*
D11*
X197866000Y-62484000D03*
X195326000Y-65024000D03*
X197866000Y-65024000D03*
X195326000Y-67564000D03*
X197866000Y-67564000D03*
X195326000Y-70104000D03*
X197866000Y-70104000D03*
X195326000Y-72644000D03*
X197866000Y-72644000D03*
X195326000Y-75184000D03*
X197866000Y-75184000D03*
X195326000Y-77724000D03*
X197866000Y-77724000D03*
X195326000Y-80264000D03*
X197866000Y-80264000D03*
X195326000Y-82804000D03*
X197866000Y-82804000D03*
X195326000Y-85344000D03*
X197866000Y-85344000D03*
X195326000Y-87884000D03*
X197866000Y-87884000D03*
X195326000Y-90424000D03*
X197866000Y-90424000D03*
X195326000Y-92964000D03*
X197866000Y-92964000D03*
X195326000Y-95504000D03*
X197866000Y-95504000D03*
X195326000Y-98044000D03*
X197866000Y-98044000D03*
X195326000Y-100584000D03*
X197866000Y-100584000D03*
X195326000Y-103124000D03*
X197866000Y-103124000D03*
X195326000Y-105664000D03*
X197866000Y-105664000D03*
X195326000Y-108204000D03*
X197866000Y-108204000D03*
X195326000Y-110744000D03*
X197866000Y-110744000D03*
D12*
X126980000Y-106172000D03*
X124440000Y-106172000D03*
X128651000Y-84201000D03*
X131191000Y-84201000D03*
D15*
X144145000Y-78740000D03*
D11*
X144145000Y-81280000D03*
X144145000Y-83820000D03*
X144145000Y-86360000D03*
X144145000Y-88900000D03*
X144145000Y-91440000D03*
D12*
X183769000Y-110744000D03*
X186309000Y-110744000D03*
D16*
X188250000Y-127422000D03*
X108550000Y-127422000D03*
D12*
X192405000Y-51689000D03*
X194945000Y-51689000D03*
X183769000Y-115570000D03*
X186309000Y-115570000D03*
D10*
X168783000Y-81666000D03*
D11*
X168783000Y-79126000D03*
D12*
X184277000Y-86868000D03*
X186817000Y-86868000D03*
D16*
X188250000Y-45722000D03*
D12*
X114828000Y-110744000D03*
X117368000Y-110744000D03*
X114173000Y-121920000D03*
X116713000Y-121920000D03*
D15*
X111633000Y-102108000D03*
D11*
X111633000Y-104648000D03*
D16*
X108550000Y-45722000D03*
D15*
X111506000Y-94615000D03*
D11*
X111506000Y-97155000D03*
M02*
